<?xml version="1.0" encoding="utf-8"?>
<!-- Generator: Adobe Illustrator 16.0.0, SVG Export Plug-In . SVG Version: 6.00 Build 0)  -->
<!DOCTYPE svg PUBLIC "-//W3C//DTD SVG 1.1//EN" "http://www.w3.org/Graphics/SVG/1.1/DTD/svg11.dtd">
<svg version="1.1" id="Layer_1" xmlns="http://www.w3.org/2000/svg" xmlns:xlink="http://www.w3.org/1999/xlink" x="0px" y="0px"
	 width="960px" height="560px" viewBox="0 0 960 560" enable-background="new 0 0 960 560" xml:space="preserve">
<g>
	<g>
		<path fill-rule="evenodd" clip-rule="evenodd" fill="#009E01" d="M296.384,345.518c-8.814-0.12-17.388-1.731-25.836-4.154
			c-4.063-1.171-7.324-3.534-10.175-6.554c0.111-1.501-0.857-2.513-1.59-3.666c-2.425-3.815-4.427-7.83-5.927-12.117
			c-5.85-16.727-4.789-33.818-2.813-50.965c0.592-5.149,2.798-9.973,3.021-15.188c0.434,0.181,0.87,0.362,1.305,0.542
			c-0.208,12.77,3.54,24.041,12.586,33.311c6.428,6.589,13.576,12.033,22.479,14.971c2.338,0.772,3.611,0.428,5.155-1.447
			c3.802-4.625,7.246-9.563,11.607-13.71c6.722,6.192,13.442,12.379,20.164,18.563c12.346,11.364,24.694,22.724,37.026,34.094
			c1.9,1.755,3.72,3.604,5.579,5.409c-1.207,1.706-3.01,0.959-4.529,0.959C341.752,345.59,319.069,345.548,296.384,345.518z"/>
		<path fill-rule="evenodd" clip-rule="evenodd" fill="#911600" d="M202.909,209.549c-15.393-14.313-30.767-28.644-46.187-42.927
			c-5.499-5.091-11.215-9.951-16.431-15.35c0.828-1.794,2.47-1.436,3.937-1.444c5.898-0.039,11.798-0.058,17.698-0.063
			c13.582-0.012,27.166,0.114,40.743-0.127c2.543-0.046,4.996,1.899,7.541,0.253c0.413-0.039,0.828-0.078,1.24-0.121
			c0.6,0.622,1.364,0.821,2.195,0.923c8.156,0.976,16.295,2.059,24.287,4.033c6.49,2.017,11.594,6.249,16.717,10.454
			c12.556,10.31,25.11,20.626,37.672,30.924c0.306,0.253,0.722,0.368,1.087,0.542c1.889,3.301,5.268,4.995,8.04,7.313
			c7.731,6.463,7.793,6.391,3.061,15.386c-0.059,0.115-0.201,0.181-0.306,0.272c-0.878,0.277-1.073,0.956-1.038,1.77l0.065-0.088
			c-1.331,0.446-1.914,1.308-1.522,2.72l0.061-0.009c-2.691-0.775-2.02-3.036-1.864-4.778c0.676-7.488-2.733-13.047-8.407-17.237
			c-11.098-8.199-21.816-16.809-31.462-26.708c-1.223-1.254-2.5-2.375-4.669-1.775c4.419,11.97,6.267,24.188,5.644,36.684
			c-0.543,10.901-2.146,21.699-4.76,32.325c-0.401-0.021-0.804-0.045-1.203-0.063c0.246-5.384-0.401-10.663-2.07-15.778
			c-5.322-16.327-17.305-26.037-32.41-32.744c-2.727-1.212-4.074-0.453-5.811,1.612C210.824,200.228,207.359,205.31,202.909,209.549
			z M238.569,197.904c-0.118-0.66-0.11-1.083-0.266-1.438c-6.019-13.593-13.848-26.083-23.071-37.715
			c-0.602-0.759-1.463-1.763-2.337-1.429c-2.923,1.118-5.671-0.151-8.483-0.317c-8.227-0.482-16.373,0.893-24.58,0.929
			c-1.724,0.008-3.559,0.512-5.148,1.224c-3.604,1.604-5.358,3.876-3.057,7.708c1.276,2.125,2.469,4.223,4.306,5.938
			c4.897,4.573,9.546,9.391,14.54,13.888c6.454,5.813,13.405,7.859,21.85,6.029c7.516-1.625,14.793-1.013,21.36,3.659
			C234.93,197.267,236.35,198.359,238.569,197.904z"/>
		<path fill-rule="evenodd" clip-rule="evenodd" fill="#01F0FC" d="M304.203,219.618c0.105-0.091,0.248-0.157,0.306-0.272
			c4.733-8.995,4.671-8.923-3.061-15.386c-2.771-2.318-6.151-4.012-8.04-7.313c5.336-4.887,10.004-10.412,14.939-15.682
			c14.149-15.109,28.211-30.303,42.324-45.448c0.501-0.537,0.748-1.525,1.827-1.26c-0.077,2.737-0.212,5.469-0.217,8.203
			c-0.027,18.479-0.086,36.961,0.031,55.435c0.017,2.577-0.767,4.337-2.559,6.071c-5.796,5.607-12.118,10.545-18.683,15.199
			c-1.2,0.85-2.729,1.339-3.366,2.858l0.101,0.03c-0.786-0.175-1.371,0.048-1.673,0.838l0.032-0.019
			c-0.739-0.063-1.312,0.199-1.691,0.851l0.047-0.034c-0.478,0.099-0.855,0.298-0.861,0.865l0.034-0.033
			c-0.756-0.108-1.362,0.079-1.683,0.841l0.039-0.021c-0.724-0.033-1.32,0.184-1.692,0.854l0.043-0.037
			c-0.479,0.097-0.878,0.278-0.86,0.869l0.034-0.037c-0.775-0.144-1.401-0.003-1.68,0.841l0.036-0.019
			c-0.74-0.075-1.385,0.043-1.686,0.845l0.04-0.021c-0.733-0.055-1.366,0.087-1.692,0.847l0.048-0.027
			c-0.722-0.024-1.352,0.135-1.7,0.853l0.058-0.033c-0.764-0.006-1.417,0.229-1.898,0.853c-0.224-0.036-0.431,0.009-0.621,0.136
			c-0.355,0.235-0.708,0.47-1.061,0.702c-3.901,0.754-7.11,3.241-10.86,4.366c-3.172,0.949-5.982,3.144-9.535,2.8
			c4.993-4.413,9.707-9.062,12.745-15.124l-0.061,0.009c0.859-0.711,1.396-1.604,1.522-2.72l-0.065,0.088
			C303.928,221.041,304.01,220.295,304.203,219.618z"/>
		<path fill-rule="evenodd" clip-rule="evenodd" fill="#35ABFD" d="M216.033,299.026c-4.418,3.655-7.824,8.271-11.787,12.366
			c-7.602,7.856-15.173,15.767-22.542,23.821c-7.368,8.049-14.839,16.02-22.124,24.152c-0.622,0.699-1.117,1.574-2.128,1.834
			c-0.03-20.391,0.05-40.775-0.178-61.16c-0.046-4.263,0.654-7.777,4.174-10.394c16.174-14.07,33.924-25.48,54.415-32.275
			c1.668-0.554,3.171-1.664,5.056-1.477c-0.486,0.47-0.942,0.971-1.462,1.399c-8.409,6.945-13.986,15.816-17.873,25.9
			c-0.773,2.008-0.458,3.184,1.18,4.528c3.227,2.647,6.312,5.463,9.849,7.71l0.288,0.235l0.366-0.054l0.009-0.187
			c-0.078,0.663,0.308,0.869,0.88,0.881l-0.058-0.055c-0.003,0.585,0.366,0.808,0.882,0.886l-0.063-0.066
			c0.071,0.512,0.422,0.753,0.879,0.894l-0.086-0.006C215.817,298.314,215.926,298.672,216.033,299.026z"/>
		<path fill-rule="evenodd" clip-rule="evenodd" fill="#8DC3FD" d="M202.909,209.549c4.45-4.239,7.915-9.321,11.848-14.003
			c1.737-2.065,3.084-2.824,5.811-1.612c15.104,6.707,27.088,16.417,32.41,32.744c1.669,5.115,2.315,10.394,2.07,15.778
			c-2.76-0.006-4.643,1.284-5.673,3.834c-8.479-1.326-16.836-3.292-25.443-3.937c-19.282-1.451-38.062-0.585-55.012,10.273
			c-0.182-0.192-0.374-0.379-0.575-0.554c10.798-13.191,21.599-26.377,32.389-39.578
			C201.504,211.55,202.186,210.531,202.909,209.549z"/>
		<path fill-rule="evenodd" clip-rule="evenodd" fill="#01F0FC" d="M306.196,286.541c-4.361,4.147-7.806,9.085-11.607,13.71
			c-1.543,1.875-2.816,2.22-5.155,1.447c-8.904-2.938-16.051-8.382-22.479-14.971c-9.046-9.27-12.793-20.542-12.586-33.311
			c2.007-0.675,4.078-1.26,5.116-3.397c2.195-0.986,4.281,0.069,6.328,0.498c8.011,1.673,16.059,3.008,24.229,3.524
			c2.734,0.075,5.467,0.169,8.2,0.226c15.386,0.331,29.888-2.604,42.762-11.558c0.32,1.812-1.185,2.677-2.086,3.78
			c-9.88,12.076-19.821,24.104-29.733,36.155C308.144,283.912,307.189,285.243,306.196,286.541z"/>
		<path fill-rule="evenodd" clip-rule="evenodd" fill="#00E64B" d="M212.613,295.433c-3.537-2.247-6.623-5.063-9.849-7.71
			c-1.638-1.345-1.953-2.521-1.18-4.528c3.887-10.084,9.464-18.956,17.873-25.9c0.52-0.429,0.976-0.929,1.462-1.399
			c8.543-5.809,17.83-9.05,28.301-8.211c0.336,2.43,1.481,4.259,3.844,5.191c-0.223,5.215-2.429,10.039-3.021,15.188
			c-1.976,17.146-3.037,34.238,2.813,50.965c1.5,4.287,3.501,8.302,5.927,12.117c0.733,1.153,1.702,2.165,1.59,3.666
			c-4.317-2.556-7.775-6.205-11.703-9.255c0.113-0.59-0.082-1.065-0.529-1.447c-3.8-3.243-6.259-7.409-8.875-11.629
			c-5.322-8.585-12.539-14.826-23.557-14.518l0.086,0.006c-0.292-0.303-0.585-0.599-0.879-0.894l0.063,0.066
			c-0.295-0.295-0.588-0.59-0.882-0.886l0.058,0.055c-0.295-0.296-0.587-0.586-0.88-0.881l-0.009,0.187
			C213.131,295.252,212.977,294.956,212.613,295.433z"/>
		<path fill-rule="evenodd" clip-rule="evenodd" fill="#0072A0" d="M341.004,242.709c-12.875,8.954-27.376,11.889-42.762,11.558
			c-2.733-0.057-5.466-0.151-8.2-0.226c0.354-0.609,0.814-1.237,1.513-1.272c3.622-0.19,7.136-1.1,10.667-1.607
			c8.041-1.157,15.822-3.008,23.071-6.505c6.118-2.948,11.05-7.442,13.532-14.102c1.771-4.745-0.706-8.398-5.79-8.45
			c-1.778-0.018-3.554-0.054-5.33-0.082c0.637-1.519,2.166-2.008,3.366-2.858c6.565-4.654,12.887-9.592,18.683-15.199
			c1.792-1.734,2.576-3.494,2.559-6.071c-0.118-18.473-0.059-36.956-0.031-55.435c0.005-2.734,0.14-5.466,0.217-8.203
			c0.583,0.528,0.484,1.225,0.482,1.902c-0.046,21.389,0.088,42.783-0.21,64.171c-0.158,11.509-1.371,22.965-5.269,33.943
			C346.26,237.771,344.866,241.201,341.004,242.709z"/>
		<path fill-rule="evenodd" clip-rule="evenodd" fill="#009E01" d="M215.708,297.961c11.018-0.309,18.235,5.933,23.557,14.518
			c2.617,4.22,5.076,8.386,8.875,11.629c0.447,0.382,0.642,0.857,0.529,1.447c-9.817-7.994-19.632-15.988-29.452-23.978
			c-1.055-0.862-2.122-1.705-3.185-2.551C215.926,298.672,215.817,298.314,215.708,297.961z"/>
		<path fill-rule="evenodd" clip-rule="evenodd" fill="#2E4F7C" d="M161.448,289.646c-3.52,2.616-4.22,6.131-4.174,10.394
			c0.228,20.385,0.148,40.77,0.178,61.16c-1.605-0.905-0.878-2.449-0.882-3.686c-0.049-20.516-0.181-41.046,0.026-61.563
			c0.096-9.7,1.294-19.341,3.53-28.813c1.225-5.191,2.85-10.213,7.173-13.815c0.511-0.003,1.021-0.009,1.53-0.009
			c1.143,1.259-0.286,1.724-0.849,2.194c-2.982,2.501-4.43,5.848-5.562,9.421c-2.289,7.232-2.308,14.798-3.338,22.219
			C158.839,288.892,159.73,289.693,161.448,289.646z"/>
		<path fill-rule="evenodd" clip-rule="evenodd" fill="#265734" d="M296.384,345.518c22.685,0.03,45.368,0.072,68.051,0.049
			c1.519,0,3.322,0.747,4.529-0.959c0.589,0.489,1.016,1.224,0.107,1.536c-0.992,0.345-2.146,0.284-3.231,0.284
			c-21.053,0.03-42.106,0.067-63.159,0.019C300.576,346.446,298.293,347.084,296.384,345.518z"/>
		<path fill-rule="evenodd" clip-rule="evenodd" fill="#8DC3FD" d="M168.829,253.314c-0.509,0-1.019,0.006-1.53,0.009
			c-0.054-0.754,0.609-0.907,1.044-1.251c0.201,0.175,0.393,0.362,0.575,0.554C168.905,252.856,168.875,253.085,168.829,253.314z"/>
		<path fill-rule="evenodd" clip-rule="evenodd" fill="#DA2B00" d="M259.953,248.189c-0.134-2.604-1.327-4.527-3.703-5.67
			c2.613-10.626,4.217-21.424,4.76-32.325c0.623-12.495-1.225-24.713-5.644-36.684c2.17-0.6,3.446,0.521,4.669,1.775
			c9.646,9.899,20.365,18.509,31.462,26.708c5.674,4.19,9.083,9.75,8.407,17.237c-0.156,1.743-0.827,4.003,1.864,4.778
			c-3.038,6.062-7.752,10.711-12.745,15.124C280.339,245.371,270.65,248.4,259.953,248.189z"/>
		<path fill-rule="evenodd" clip-rule="evenodd" fill="#DA2B00" d="M238.569,197.904c-2.22,0.455-3.64-0.637-4.886-1.523
			c-6.567-4.672-13.844-5.285-21.36-3.659c-8.445,1.83-15.396-0.217-21.85-6.029c-4.994-4.498-9.643-9.315-14.54-13.888
			c-1.837-1.715-3.03-3.813-4.306-5.938c-2.301-3.832-0.547-6.104,3.057-7.708c1.59-0.711,3.424-1.215,5.148-1.224
			c8.207-0.037,16.353-1.412,24.58-0.929c2.812,0.166,5.56,1.435,8.483,0.317c0.874-0.334,1.735,0.669,2.337,1.429
			c9.224,11.633,17.052,24.122,23.071,37.715C238.459,196.821,238.452,197.244,238.569,197.904z"/>
		<path fill-rule="evenodd" clip-rule="evenodd" fill="#DA2B00" d="M303.23,221.299c-0.126,1.116-0.663,2.008-1.522,2.72
			C301.316,222.607,301.899,221.746,303.23,221.299z"/>
		<path fill-rule="evenodd" clip-rule="evenodd" fill="#DA2B00" d="M304.203,219.618c-0.193,0.678-0.275,1.423-1.038,1.77
			C303.129,220.573,303.324,219.895,304.203,219.618z"/>
		<path fill-rule="evenodd" clip-rule="evenodd" fill="#008ABF" d="M259.953,248.189c10.697,0.211,20.386-2.818,29.071-9.056
			c3.553,0.344,6.363-1.851,9.535-2.8c3.75-1.125,6.959-3.611,10.86-4.366c0.353-0.232,0.706-0.467,1.061-0.702
			c0.19-0.127,0.396-0.172,0.621-0.136c0.763,0.006,1.499-0.045,1.898-0.853l-0.058,0.033c0.713,0.003,1.355-0.13,1.7-0.853
			l-0.048,0.027c0.713,0.015,1.349-0.124,1.692-0.847l-0.04,0.021c0.715,0.021,1.342-0.124,1.686-0.845l-0.036,0.019
			c0.716,0.03,1.338-0.124,1.68-0.841l-0.034,0.037c0.286-0.289,0.574-0.579,0.86-0.869l-0.043,0.037
			c0.713,0.012,1.36-0.108,1.692-0.854l-0.039,0.021c0.718,0.03,1.346-0.108,1.683-0.841l-0.034,0.033
			c0.287-0.289,0.573-0.579,0.861-0.865l-0.047,0.034c0.714,0.018,1.364-0.097,1.691-0.851l-0.032,0.019
			c0.719,0.042,1.345-0.103,1.673-0.838l-0.101-0.03c1.776,0.027,3.551,0.063,5.33,0.082c5.084,0.051,7.561,3.705,5.79,8.45
			c-2.482,6.66-7.415,11.154-13.532,14.102c-7.249,3.497-15.03,5.348-23.071,6.505c-3.531,0.507-7.045,1.417-10.667,1.607
			c-0.699,0.036-1.159,0.663-1.513,1.272c-8.171-0.516-16.218-1.851-24.229-3.524c-2.046-0.428-4.133-1.483-6.328-0.498
			C259.287,249.32,259.647,248.762,259.953,248.189z"/>
		<path fill-rule="evenodd" clip-rule="evenodd" fill="#0072A0" d="M317.931,227.813c-0.343,0.721-0.971,0.866-1.686,0.845
			C316.545,227.856,317.19,227.739,317.931,227.813z"/>
		<path fill-rule="evenodd" clip-rule="evenodd" fill="#0072A0" d="M316.285,228.637c-0.343,0.723-0.979,0.862-1.692,0.847
			C314.919,228.725,315.552,228.583,316.285,228.637z"/>
		<path fill-rule="evenodd" clip-rule="evenodd" fill="#0072A0" d="M314.642,229.457c-0.345,0.723-0.987,0.856-1.7,0.853
			C313.29,229.592,313.92,229.433,314.642,229.457z"/>
		<path fill-rule="evenodd" clip-rule="evenodd" fill="#0072A0" d="M312.999,230.277c-0.399,0.808-1.135,0.859-1.898,0.853
			C311.582,230.506,312.235,230.271,312.999,230.277z"/>
		<path fill-rule="evenodd" clip-rule="evenodd" fill="#0072A0" d="M322.05,225.342c-0.333,0.745-0.979,0.866-1.692,0.854
			C320.73,225.526,321.326,225.309,322.05,225.342z"/>
		<path fill-rule="evenodd" clip-rule="evenodd" fill="#0072A0" d="M323.693,224.522c-0.336,0.733-0.965,0.871-1.683,0.841
			C322.331,224.601,322.938,224.414,323.693,224.522z"/>
		<path fill-rule="evenodd" clip-rule="evenodd" fill="#0072A0" d="M326.165,222.873c-0.327,0.753-0.977,0.868-1.691,0.851
			C324.854,223.072,325.426,222.81,326.165,222.873z"/>
		<path fill-rule="evenodd" clip-rule="evenodd" fill="#0072A0" d="M327.807,222.053c-0.329,0.735-0.955,0.88-1.673,0.838
			C326.436,222.102,327.021,221.878,327.807,222.053z"/>
		<path fill-rule="evenodd" clip-rule="evenodd" fill="#0072A0" d="M319.575,226.991c-0.342,0.718-0.964,0.872-1.68,0.841
			C318.174,226.988,318.8,226.847,319.575,226.991z"/>
		<path fill-rule="evenodd" clip-rule="evenodd" fill="#0072A0" d="M310.48,231.266c-0.355,0.235-0.708,0.47-1.061,0.702
			C309.772,231.736,310.125,231.5,310.48,231.266z"/>
		<path fill-rule="evenodd" clip-rule="evenodd" fill="#0072A0" d="M320.401,226.159c-0.286,0.29-0.574,0.58-0.86,0.869
			C319.522,226.437,319.922,226.256,320.401,226.159z"/>
		<path fill-rule="evenodd" clip-rule="evenodd" fill="#0072A0" d="M324.521,223.69c-0.289,0.286-0.575,0.576-0.861,0.865
			C323.666,223.988,324.043,223.789,324.521,223.69z"/>
		<path fill-rule="evenodd" clip-rule="evenodd" fill="#3468D5" d="M249.374,246.29c-0.05,0.465-0.104,0.929-0.154,1.393
			c-10.471-0.838-19.757,2.402-28.301,8.211c-1.885-0.187-3.388,0.923-5.056,1.477c-20.49,6.794-38.24,18.205-54.415,32.275
			c-1.718,0.047-2.609-0.755-2.368-2.498c1.03-7.42,1.049-14.987,3.338-22.219c1.132-3.573,2.58-6.919,5.562-9.421
			c0.563-0.47,1.992-0.935,0.849-2.194c0.045-0.229,0.076-0.458,0.089-0.688c16.951-10.858,35.73-11.724,55.012-10.273
			C232.538,242.999,240.896,244.964,249.374,246.29z"/>
		<path fill-rule="evenodd" clip-rule="evenodd" fill="#009E01" d="M212.613,295.433c0.364-0.477,0.518-0.181,0.653,0.182
			l-0.366,0.054L212.613,295.433z"/>
		<path fill-rule="evenodd" clip-rule="evenodd" fill="#009E01" d="M213.275,295.428c0.292,0.295,0.585,0.585,0.88,0.881
			C213.583,296.297,213.198,296.091,213.275,295.428z"/>
		<path fill-rule="evenodd" clip-rule="evenodd" fill="#009E01" d="M214.097,296.254c0.294,0.296,0.587,0.591,0.882,0.886
			C214.463,297.062,214.094,296.839,214.097,296.254z"/>
		<path fill-rule="evenodd" clip-rule="evenodd" fill="#009E01" d="M214.916,297.073c0.294,0.295,0.586,0.591,0.879,0.894
			C215.338,297.826,214.987,297.585,214.916,297.073z"/>
	</g>
	<text transform="matrix(1 0 0 1 396.1211 213.0972)" fill="#5D5D5D" font-family="'MyriadPro-Regular'" font-size="46.2477">Apache</text>
	<text transform="matrix(1 0 0 1 372.501 325.8242)" fill="#5D5D5D" font-family="'Raavi'" font-size="150.305">Airflow</text>
</g>
</svg>
