<?xml version="1.0" encoding="utf-8"?>
<!-- Generator: Adobe Illustrator 16.0.0, SVG Export Plug-In . SVG Version: 6.00 Build 0)  -->
<!DOCTYPE svg PUBLIC "-//W3C//DTD SVG 1.1//EN" "http://www.w3.org/Graphics/SVG/1.1/DTD/svg11.dtd">
<svg version="1.1" id="Layer_1" xmlns="http://www.w3.org/2000/svg" xmlns:xlink="http://www.w3.org/1999/xlink" x="0px" y="0px"
	 width="960px" height="560px" viewBox="0 0 960 560" enable-background="new 0 0 960 560" xml:space="preserve">
<g>
	<g>
		<g>
			<path fill-rule="evenodd" clip-rule="evenodd" fill="#EB1E26" d="M662.481,285.819c-0.948,0.622-1.683,1.465-2.436,2.299
				c-0.519,0.575-1.131,1.063-1.685,1.609c-0.326,0.323-0.594,0.708-0.93,1.019c-1.357,1.25-2.548,2.672-3.97,3.854
				c-0.227,0.189-0.404,0.436-0.696,0.759c-1.348-3.026-1.729-6.139-1.305-9.328c0.433-3.234,1.913-5.974,4.33-8.191
				c0.152,0.015,0.143-0.146,0.224-0.208l0.063-0.006c0.217-0.083,0.438-0.153,0.646-0.251c2.876-1.36,5.836-1.546,8.859-0.587
				c1.299,0.41,2.573,0.895,3.86,1.346c0.098,0.095,0.158,0.351,0.351,0.091c0.025,0.147,0.115,0.212,0.265,0.201
				c0.009,0.279,0.248,0.294,0.428,0.388c1.019,0.522,2.11,0.861,3.188,1.214c2.823,0.92,5.625,0.914,8.382-0.278
				c0.296-0.129,0.604-0.233,0.907-0.349c0.119,0.334-0.188,0.443-0.351,0.608c-1.567,1.578-3.143,3.147-4.715,4.719
				c-0.311,0.311-0.617,0.629-0.925,0.94c-1.143-0.227-2.099-0.839-3.008-1.514c-1.736-1.295-3.086-2.91-3.958-4.908
				c-0.111-0.254-0.17-0.695-0.652-0.434c-0.02,0.072-0.039,0.143-0.059,0.214l-0.004,0.006c-0.382,0.108-0.586,0.438-0.846,0.694
				c-1.122,1.11-2.206,2.264-3.357,3.34C664.161,283.93,663.281,284.837,662.481,285.819z"/>
			<path fill-rule="evenodd" clip-rule="evenodd" fill="#0483CA" d="M669.354,278.811c0.482-0.261,0.541,0.18,0.652,0.434
				c0.872,1.998,2.222,3.613,3.958,4.908c0.909,0.675,1.865,1.287,3.008,1.514c3.217,3.225,6.43,6.448,9.696,9.719
				c-1.128,0.534-2.282,0.816-3.457,1.047c-2.82,0.556-5.628,0.566-8.382-0.351c-2.457-0.82-4.556-2.178-6.109-4.293
				c-0.021-0.066-0.034-0.135-0.066-0.199c-1.469-3.07-1.603-6.208-0.529-9.432c0.353-1.059,0.851-2.057,1.167-3.127l0.004-0.006
				C669.366,278.967,669.417,278.905,669.354,278.811z"/>
			<path fill-rule="evenodd" clip-rule="evenodd" fill="#FDD003" d="M669.793,278.224c-0.192,0.26-0.253,0.004-0.351-0.091
				c0.086-0.556-0.338-0.911-0.535-1.355c-0.11-0.33-0.204-0.668-0.54-0.853l-0.006-0.007c-0.06-0.248-0.174-0.459-0.421-0.574
				c0-0.036-0.01-0.064-0.035-0.088c-0.043-0.047-0.088-0.095-0.134-0.143l0,0c-0.111-0.455-0.483-0.692-0.798-0.979
				c-0.057-0.05-0.11-0.1-0.167-0.146c-0.049-0.052-0.098-0.101-0.146-0.15c-0.025-0.045-0.059-0.072-0.107-0.083
				c-0.079-0.181-0.204-0.313-0.404-0.354l-0.02-0.015c-0.057-0.238-0.265-0.291-0.453-0.373l0.002,0.003
				c-0.051-0.044-0.099-0.087-0.147-0.132l-0.003-0.001c-0.054-0.114-0.148-0.16-0.267-0.162l0.003,0.001
				c-0.055-0.109-0.141-0.162-0.266-0.158l0.011-0.007c-0.739-0.758-1.643-1.183-2.673-1.365c-3.207-3.157-6.412-6.315-9.617-9.472
				c0.035-0.094,0.077-0.189,0.117-0.284c3.042-1.228,6.214-1.605,9.48-1.135c3.328,0.479,6.056,2.067,8.227,4.624
				c0.022,0.091,0.031,0.188,0.071,0.269c1.647,3.279,1.667,6.622,0.429,10.033C670.671,276.246,670.18,277.212,669.793,278.224z"/>
			<path fill-rule="evenodd" clip-rule="evenodd" fill="#5EB94A" d="M682.963,279.4c-0.304,0.116-0.611,0.22-0.907,0.349
				c-2.757,1.192-5.559,1.198-8.382,0.278c-1.078-0.354-2.17-0.692-3.188-1.214c-0.18-0.093-0.419-0.108-0.428-0.388
				c0.152-0.103,0.296-0.228,0.462-0.303c1.663-0.764,3.129-1.804,4.309-3.206c0.947-1.125,1.887-2.272,2.07-3.821
				c3.226-3.19,6.45-6.379,9.756-9.646c0.814,2.066,1.265,4.123,1.357,6.26c-0.071-0.042-0.143-0.083-0.214-0.122
				c-0.161,0.294-0.008,1.683,0.214,1.938c-0.223,3.032-1.137,5.788-3.126,8.152C684.319,278.352,683.731,278.969,682.963,279.4z"/>
			<path fill-rule="evenodd" clip-rule="evenodd" fill="#0483CA" d="M676.898,271.095c-0.184,1.548-1.123,2.696-2.07,3.821
				c-1.18,1.402-2.646,2.442-4.309,3.206c-0.166,0.076-0.31,0.201-0.462,0.303c-0.149,0.012-0.239-0.054-0.265-0.201
				c0.387-1.012,0.878-1.978,1.25-2.998c1.238-3.411,1.219-6.754-0.429-10.033c-0.04-0.082-0.049-0.178-0.071-0.269
				c1.229,0.993,2.267,2.184,3.392,3.283c0.809,0.791,1.608,1.589,2.379,2.423C676.491,270.827,676.93,270.661,676.898,271.095z"/>
			<path fill-rule="evenodd" clip-rule="evenodd" fill="#5EB94A" d="M668.907,276.778c0.197,0.445,0.621,0.8,0.535,1.355
				c-1.287-0.452-2.562-0.936-3.86-1.346c-3.023-0.959-5.983-0.773-8.859,0.587c-0.208,0.098-0.429,0.168-0.646,0.251
				c0.849-1.118,1.937-2,2.907-2.996c1.087-1.115,2.206-2.194,3.313-3.289c0.564,0.337,1.23,0.455,1.757,0.899
				c0.227,0.192,0.582,0.367,0.954,0.318c0,0-0.011,0.007-0.011,0.009c0.029,0.155,0.137,0.174,0.266,0.156
				c0,0-0.003-0.001-0.004-0.001c0.045,0.13,0.144,0.163,0.268,0.162l0.003,0.001c0.049,0.045,0.097,0.088,0.147,0.132l-0.002-0.003
				c0.017,0.29,0.143,0.443,0.453,0.373l0.02,0.015c-0.029,0.199-0.284,0.297-0.232,0.535c0.262,0.098,0.489,0.104,0.637-0.181
				c0.049,0.012,0.082,0.039,0.105,0.083c0.051,0.049,0.1,0.098,0.148,0.15c0.057,0.046,0.11,0.095,0.167,0.146
				c-0.28,0.204-0.19,0.468-0.107,0.852c0.379-0.348,0.595,0.065,0.905,0.128l0,0c0.046,0.048,0.091,0.095,0.134,0.143
				c0.025,0.024,0.035,0.052,0.035,0.088c0,0.296,0.007,0.584,0.421,0.574l0.006,0.007
				C668.275,276.383,668.361,276.725,668.907,276.778z"/>
			<path fill-rule="evenodd" clip-rule="evenodd" fill="#FDD003" d="M669.292,279.031c-0.316,1.07-0.814,2.068-1.167,3.127
				c-1.073,3.224-0.939,6.361,0.529,9.432c0.032,0.064,0.045,0.133,0.066,0.199c-0.419-0.212-0.741-0.554-1.061-0.883
				c-1.678-1.744-3.394-3.449-5.179-5.087c0.8-0.982,1.68-1.89,2.607-2.754c1.151-1.076,2.235-2.23,3.357-3.34
				C668.706,279.47,668.91,279.14,669.292,279.031z"/>
			<path fill-rule="evenodd" clip-rule="evenodd" fill="#77B32D" d="M665.009,272.557c-0.372,0.049-0.728-0.126-0.954-0.318
				c-0.526-0.444-1.192-0.562-1.757-0.899c0.013-0.049,0.026-0.097,0.038-0.147C663.366,271.374,664.27,271.799,665.009,272.557z"/>
			<path fill-rule="evenodd" clip-rule="evenodd" fill="#4CAF3A" d="M688.012,269.525c-0.222-0.255-0.375-1.644-0.214-1.938
				c0.071,0.039,0.143,0.08,0.214,0.122C688.012,268.313,688.012,268.918,688.012,269.525z"/>
			<path fill-rule="evenodd" clip-rule="evenodd" fill="#5EB94A" d="M656.015,277.631c-0.081,0.062-0.071,0.223-0.224,0.208
				C655.866,277.771,655.939,277.7,656.015,277.631z"/>
			<path fill-rule="evenodd" clip-rule="evenodd" fill="#FDD003" d="M669.354,278.811c0.063,0.094,0.012,0.156-0.059,0.214
				C669.315,278.954,669.335,278.883,669.354,278.811z"/>
			<path fill-rule="evenodd" clip-rule="evenodd" fill="#77B32D" d="M667.771,275.113c-0.311-0.063-0.526-0.476-0.905-0.128
				c-0.083-0.383-0.173-0.648,0.107-0.852C667.288,274.421,667.66,274.659,667.771,275.113z"/>
			<path fill-rule="evenodd" clip-rule="evenodd" fill="#77B32D" d="M668.907,276.778c-0.546-0.053-0.632-0.395-0.54-0.853
				C668.703,276.109,668.797,276.448,668.907,276.778z"/>
			<path fill-rule="evenodd" clip-rule="evenodd" fill="#77B32D" d="M666.553,273.755c-0.147,0.285-0.375,0.279-0.637,0.181
				c-0.052-0.238,0.203-0.335,0.232-0.535C666.349,273.441,666.474,273.574,666.553,273.755z"/>
			<path fill-rule="evenodd" clip-rule="evenodd" fill="#77B32D" d="M668.361,275.917c-0.414,0.01-0.421-0.278-0.421-0.574
				C668.188,275.458,668.302,275.669,668.361,275.917z"/>
			<path fill-rule="evenodd" clip-rule="evenodd" fill="#77B32D" d="M666.129,273.386c-0.311,0.07-0.437-0.083-0.453-0.373
				C665.864,273.095,666.072,273.148,666.129,273.386z"/>
			<path fill-rule="evenodd" clip-rule="evenodd" fill="#77B32D" d="M665.527,272.882c-0.124,0.001-0.223-0.031-0.268-0.162
				C665.379,272.722,665.474,272.768,665.527,272.882z"/>
			<path fill-rule="evenodd" clip-rule="evenodd" fill="#77B32D" d="M665.264,272.722c-0.129,0.018-0.236-0.001-0.266-0.156
				C665.123,272.56,665.209,272.613,665.264,272.722z"/>
			<path fill-rule="evenodd" clip-rule="evenodd" fill="#77B32D" d="M665.678,273.016c-0.051-0.044-0.099-0.087-0.147-0.132
				C665.579,272.929,665.627,272.972,665.678,273.016z"/>
			<path fill-rule="evenodd" clip-rule="evenodd" fill="#77B32D" d="M666.807,273.988c-0.049-0.052-0.098-0.101-0.148-0.15
				C666.709,273.887,666.758,273.936,666.807,273.988z"/>
			<path fill-rule="evenodd" clip-rule="evenodd" fill="#77B32D" d="M667.905,275.256c-0.043-0.047-0.088-0.095-0.134-0.143
				C667.817,275.161,667.862,275.208,667.905,275.256z"/>
		</g>
		
			<circle fill-rule="evenodd" clip-rule="evenodd" fill="none" stroke="#7AC943" stroke-width="3" stroke-miterlimit="10" cx="669.653" cy="278.462" r="23.731"/>
	</g>
	<path fill="#0483CA" d="M244.576,302.142l-3.988-12.209h-21.535l-4.268,12.209h-8.849l23.509-58.674h2.094l21.81,58.674H244.576z
		 M230.117,258.64l-8.971,25.483h17.188L230.117,258.64z"/>
	<path fill="#0483CA" d="M266.348,299.811v18.927h-7.506v-58.912h7.506v3.476c2.845-2.845,6.284-4.267,10.313-4.267
		c6.006,0,10.681,1.87,14.026,5.611c3.346,3.741,5.018,9.219,5.018,16.437c0,6.427-1.686,11.675-5.057,15.744
		c-3.373,4.069-8.246,6.105-14.619,6.105c-1.793,0-3.708-0.316-5.749-0.948C268.238,301.351,266.928,300.627,266.348,299.811z
		 M266.348,268.951v24.656c0.476,0.712,1.475,1.39,3.004,2.034c1.526,0.646,3.016,0.968,4.465,0.968
		c9.323,0,13.987-5.268,13.987-15.804c0-5.348-1.107-9.259-3.32-11.735c-2.212-2.476-5.755-3.713-10.627-3.713
		c-1.056,0-2.346,0.369-3.874,1.106C268.455,267.2,267.244,268.03,266.348,268.951z"/>
	<path fill="#0483CA" d="M327.828,297.281c-3.003,3.767-7.6,5.65-13.79,5.65c-3.319,0-6.196-1.205-8.634-3.616
		c-2.437-2.409-3.653-5.405-3.653-8.988c0-4.293,1.876-7.922,5.63-10.886s8.54-4.444,14.361-4.444c1.58,0,3.373,0.342,5.373,1.027
		c0-6.847-3.056-10.273-9.166-10.273c-4.688,0-8.297,1.265-10.826,3.793l-3.16-6.283c1.424-1.158,3.391-2.152,5.906-2.983
		c2.516-0.829,4.92-1.244,7.211-1.244c6.139,0,10.596,1.397,13.375,4.188c2.777,2.792,4.169,7.229,4.169,13.314v15.174
		c0,3.714,1.106,6.19,3.319,7.427v3.756c-3.058,0-5.342-0.436-6.856-1.305C329.572,300.719,328.486,299.283,327.828,297.281z
		 M327.115,281.358c-2.369-0.526-4.029-0.791-4.977-0.791c-3.793,0-6.89,0.975-9.285,2.925c-2.397,1.948-3.598,4.252-3.598,6.914
		c0,4.399,2.596,6.598,7.785,6.598c3.793,0,7.152-1.805,10.074-5.413V281.358z"/>
	<path fill="#0483CA" d="M378.362,263.262l-3.713,5.294c-0.765-0.764-2.114-1.486-4.052-2.173c-1.935-0.684-3.839-1.025-5.709-1.025
		c-4.082,0-7.322,1.428-9.719,4.287c-2.398,2.858-3.596,6.776-3.596,11.754c0,4.953,1.225,8.727,3.674,11.32
		c2.451,2.595,5.848,3.891,10.195,3.891c3.371,0,6.769-1.304,10.193-3.912l2.963,6.323c-4.03,2.608-9.021,3.911-14.975,3.911
		c-5.769,0-10.535-1.937-14.303-5.808c-3.768-3.874-5.649-9.114-5.649-15.726c0-6.743,1.956-12.156,5.866-16.24
		c3.912-4.081,9.266-6.124,16.063-6.124c2.185,0,4.557,0.461,7.111,1.382C375.268,261.34,377.15,262.287,378.362,263.262z"/>
	<path fill="#0483CA" d="M412.579,302.142V275.55c0-3.16-0.776-5.651-2.33-7.467c-1.555-1.819-3.741-2.726-6.561-2.726
		c-1.816,0-3.642,0.532-5.472,1.599c-1.832,1.067-3.233,2.312-4.207,3.734v31.451h-7.509V242.48h7.509v22.006
		c1-1.553,2.613-2.851,4.84-3.891c2.227-1.041,4.523-1.561,6.895-1.561c4.479,0,7.987,1.475,10.53,4.425
		c2.542,2.95,3.812,6.981,3.812,12.091v26.591H412.579z"/>
	<path fill="#0483CA" d="M466.354,281.714h-30.503c0,4.954,1.355,8.759,4.069,11.419c2.396,2.318,5.479,3.477,9.246,3.477
		c4.294,0,7.876-1.25,10.747-3.753l3.16,5.413c-1.159,1.159-2.938,2.159-5.334,3.002c-3.002,1.106-6.348,1.66-10.035,1.66
		c-5.321,0-9.838-1.804-13.553-5.413c-4.136-3.977-6.202-9.324-6.202-16.041c0-6.981,2.12-12.578,6.361-16.793
		c3.793-3.766,8.283-5.649,13.472-5.649c6.031,0,10.761,1.699,14.186,5.097c3.32,3.267,4.979,7.599,4.979,13
		C466.947,278.791,466.748,280.318,466.354,281.714z M448.141,265.357c-3.346,0-6.15,1.079-8.416,3.24
		c-2.161,2.054-3.386,4.609-3.676,7.663h23.432c0-3.029-0.948-5.557-2.846-7.586C454.553,266.463,451.722,265.357,448.141,265.357z"
		/>
	<path fill="#0483CA" d="M528.229,302.142l-3.991-12.209h-21.534l-4.266,12.209h-8.851l23.508-58.674h2.095l21.812,58.674H528.229z
		 M513.768,258.64l-8.969,25.483h17.188L513.768,258.64z"/>
	<path fill="#0483CA" d="M546.127,302.142v-35.995h-5.809v-6.321h13.316v42.316H546.127z M550.236,243.823
		c1.29,0,2.391,0.455,3.3,1.363c0.908,0.91,1.363,1.995,1.363,3.26c0,1.292-0.455,2.391-1.363,3.299
		c-0.909,0.91-2.01,1.363-3.3,1.363c-1.265,0-2.351-0.453-3.259-1.363c-0.91-0.908-1.363-2.008-1.363-3.299
		c0-1.29,0.447-2.383,1.344-3.279C547.853,244.27,548.946,243.823,550.236,243.823z"/>
	<path fill="#0483CA" d="M588.563,267.055c-1.634-1.132-3.28-1.697-4.939-1.697c-2.66,0-4.986,1.223-6.975,3.674
		c-1.988,2.449-2.981,5.399-2.981,8.851v24.259h-7.507v-42.316h7.507v6.755c2.737-5.029,6.809-7.546,12.208-7.546
		c1.344,0,3.279,0.236,5.809,0.71L588.563,267.055z"/>
	<path fill="#0483CA" d="M619.896,249.196c-1.528-0.526-2.95-0.791-4.267-0.791c-2.292,0-4.183,0.87-5.671,2.61
		c-1.489,1.737-2.232,3.938-2.232,6.597c0,0.712,0.065,1.449,0.198,2.213h8.612v6.321h-8.612v35.995h-7.508v-35.995h-6.163v-6.321
		h6.163c0-5.401,1.33-9.642,3.991-12.723c2.66-3.083,6.177-4.623,10.55-4.623c2.186,0,4.529,0.394,7.032,1.183L619.896,249.196z"/>
	<path fill="#0483CA" d="M627.521,290.169V242.48h7.506v46.424c0,2.267,0.652,4.051,1.956,5.354c1.304,1.304,3.01,1.956,5.117,1.956
		v6.718C632.38,302.932,627.521,298.679,627.521,290.169z"/>
	<path fill="#0483CA" d="M738.242,302.932h-1.976l-12.406-28.804l-12.367,28.804h-1.976l-15.133-43.225h8.02l9.05,27.776
		l11.261-27.776h1.975l11.617,27.776l9.719-27.776h7.39L738.242,302.932z"/>
</g>
</svg>
