<?xml version="1.0" encoding="utf-8"?>
<!-- Generator: Adobe Illustrator 16.0.0, SVG Export Plug-In . SVG Version: 6.00 Build 0)  -->
<!DOCTYPE svg PUBLIC "-//W3C//DTD SVG 1.1//EN" "http://www.w3.org/Graphics/SVG/1.1/DTD/svg11.dtd">
<svg version="1.1" id="Layer_1" xmlns="http://www.w3.org/2000/svg" xmlns:xlink="http://www.w3.org/1999/xlink" x="0px" y="0px"
     width="960px" height="560px" viewBox="0 0 960 560" enable-background="new 0 0 960 560" xml:space="preserve">
<g>
    <g>
        <text transform="matrix(1 0 0 1 375.0518 248.1816)" fill="#A8AFB8" font-family="'RechargeRg-Bold'" font-size="28.8511">Apache</text>
    </g>
    <g>
        <path fill-rule="evenodd" clip-rule="evenodd" fill="#009E01" d="M276.19,361.166c-7.303-0.099-14.405-1.434-21.405-3.442
            c-3.367-0.968-6.068-2.926-8.43-5.43c0.094-1.244-0.709-2.081-1.317-3.033c-2.009-3.163-3.667-6.491-4.91-10.041
            c-4.847-13.859-3.968-28.019-2.33-42.227c0.492-4.265,2.318-8.259,2.501-12.582c0.361,0.151,0.722,0.301,1.083,0.45
            c-0.172,10.577,2.932,19.918,10.427,27.599c5.327,5.459,11.248,9.969,18.624,12.402c1.938,0.637,2.992,0.353,4.271-1.202
            c3.148-3.83,6.003-7.917,9.616-11.354c5.568,5.128,11.136,10.252,16.705,15.379c10.228,9.415,20.459,18.825,30.676,28.249
            c1.577,1.453,3.083,2.984,4.623,4.476c-1.001,1.412-2.493,0.796-3.754,0.798C313.777,361.228,294.985,361.19,276.19,361.166z"/>
        <path fill-rule="evenodd" clip-rule="evenodd" fill="#911600" d="M198.749,248.519c-12.753-11.858-25.49-23.731-38.265-35.565
            c-4.556-4.22-9.292-8.246-13.613-12.716c0.686-1.487,2.048-1.189,3.262-1.198c4.887-0.034,9.774-0.046,14.662-0.05
            c11.251-0.01,22.506,0.093,33.755-0.108c2.107-0.036,4.139,1.575,6.248,0.212c0.342-0.034,0.685-0.066,1.026-0.099
            c0.498,0.513,1.131,0.678,1.818,0.759c6.758,0.811,13.501,1.708,20.122,3.346c5.377,1.668,9.607,5.176,13.851,8.662
            c10.401,8.54,20.802,17.085,31.21,25.618c0.254,0.206,0.598,0.302,0.901,0.45c1.565,2.733,4.365,4.136,6.662,6.057
            c6.405,5.354,6.456,5.294,2.535,12.751c-0.049,0.091-0.167,0.149-0.253,0.223c-0.729,0.229-0.89,0.792-0.859,1.466l0.054-0.073
            c-1.102,0.369-1.586,1.085-1.262,2.253l0.05-0.009c-2.229-0.637-1.675-2.516-1.545-3.958c0.561-6.205-2.265-10.807-6.964-14.279
            c-9.194-6.794-18.075-13.929-26.066-22.129c-1.015-1.039-2.07-1.972-3.868-1.471c3.66,9.917,5.191,20.039,4.675,30.391
            c-0.449,9.033-1.778,17.979-3.944,26.782c-0.331-0.018-0.665-0.036-0.997-0.055c0.204-4.458-0.332-8.831-1.713-13.07
            c-4.409-13.527-14.337-21.571-26.851-27.128c-2.259-1.004-3.376-0.373-4.814,1.338
            C205.305,240.794,202.436,245.005,198.749,248.519z M228.292,238.869c-0.097-0.544-0.09-0.897-0.221-1.189
            c-4.986-11.263-11.472-21.61-19.113-31.247c-0.5-0.631-1.212-1.462-1.937-1.184c-2.421,0.924-4.699-0.126-7.028-0.261
            c-6.815-0.4-13.564,0.74-20.363,0.769c-1.43,0.007-2.948,0.424-4.266,1.011c-2.986,1.328-4.438,3.213-2.532,6.389
            c1.058,1.76,2.045,3.498,3.567,4.918c4.059,3.79,7.909,7.781,12.047,11.508c5.346,4.812,11.105,6.509,18.103,4.996
            c6.226-1.347,12.255-0.841,17.695,3.03C225.276,238.344,226.453,239.248,228.292,238.869z"/>
        <path fill-rule="evenodd" clip-rule="evenodd" fill="#01F0FC" d="M282.669,256.859c0.086-0.073,0.204-0.131,0.253-0.223
            c3.921-7.457,3.87-7.397-2.535-12.751c-2.297-1.92-5.096-3.323-6.662-6.057c4.421-4.05,8.288-8.628,12.377-12.993
            c11.721-12.52,23.372-25.104,35.065-37.652c0.414-0.444,0.619-1.265,1.512-1.042c-0.063,2.265-0.175,4.529-0.179,6.794
            c-0.021,15.31-0.071,30.621,0.027,45.929c0.013,2.131-0.636,3.591-2.121,5.027c-4.803,4.646-10.038,8.739-15.479,12.594
            c-0.992,0.703-2.26,1.112-2.789,2.368l0.086,0.023c-0.652-0.144-1.135,0.042-1.387,0.695l0.025-0.013
            c-0.611-0.053-1.086,0.166-1.402,0.7l0.04-0.026c-0.395,0.084-0.708,0.249-0.713,0.718l0.027-0.028
            c-0.624-0.09-1.127,0.065-1.392,0.696l0.032-0.017c-0.6-0.027-1.093,0.154-1.402,0.705l0.036-0.026
            c-0.399,0.077-0.729,0.227-0.713,0.716l0.028-0.028c-0.641-0.121-1.164-0.004-1.391,0.697l0.029-0.015
            c-0.615-0.063-1.148,0.033-1.396,0.699l0.031-0.021c-0.606-0.042-1.131,0.076-1.399,0.707l0.039-0.023
            c-0.599-0.018-1.121,0.111-1.408,0.707l0.046-0.027c-0.632-0.006-1.173,0.188-1.571,0.705c-0.187-0.029-0.357,0.008-0.514,0.113
            c-0.296,0.193-0.587,0.388-0.88,0.582c-3.23,0.623-5.89,2.683-8.997,3.615c-2.628,0.789-4.955,2.607-7.899,2.322
            c4.135-3.659,8.042-7.509,10.559-12.532l-0.05,0.009c0.712-0.589,1.157-1.327,1.262-2.253l-0.054,0.073
            C282.441,258.038,282.509,257.422,282.669,256.859z"/>
        <path fill-rule="evenodd" clip-rule="evenodd" fill="#35ABFD" d="M209.622,322.646c-3.662,3.026-6.483,6.853-9.766,10.245
            c-6.299,6.508-12.571,13.062-18.676,19.735c-6.103,6.672-12.294,13.272-18.329,20.014c-0.516,0.575-0.926,1.303-1.763,1.514
            c-0.025-16.891,0.042-33.78-0.147-50.669c-0.039-3.531,0.54-6.442,3.457-8.608c13.4-11.656,28.105-21.108,45.082-26.739
            c1.383-0.459,2.628-1.378,4.19-1.224c-0.403,0.389-0.782,0.806-1.211,1.16c-6.967,5.754-11.588,13.103-14.809,21.458
            c-0.64,1.663-0.379,2.64,0.978,3.751c2.674,2.192,5.23,4.525,8.16,6.388l0.238,0.195l0.305-0.045l0.006-0.154
            c-0.065,0.551,0.256,0.718,0.729,0.727l-0.047-0.046c-0.002,0.489,0.303,0.675,0.73,0.738l-0.051-0.059
            c0.058,0.429,0.349,0.628,0.727,0.741l-0.071-0.001C209.443,322.06,209.532,322.353,209.622,322.646z"/>
        <path fill-rule="evenodd" clip-rule="evenodd" fill="#8DC3FD" d="M198.749,248.519c3.687-3.513,6.556-7.724,9.816-11.601
            c1.438-1.711,2.555-2.342,4.814-1.338c12.514,5.557,22.442,13.601,26.851,27.128c1.382,4.239,1.917,8.612,1.713,13.07
            c-2.286-0.001-3.846,1.067-4.699,3.18c-7.024-1.099-13.949-2.726-21.08-3.263c-15.976-1.202-31.533-0.485-45.578,8.514
            c-0.151-0.162-0.308-0.317-0.475-0.463c8.946-10.927,17.894-21.854,26.833-32.789
            C197.584,250.176,198.149,249.333,198.749,248.519z"/>
        <path fill-rule="evenodd" clip-rule="evenodd" fill="#01F0FC" d="M284.32,312.306c-3.613,3.438-6.468,7.524-9.616,11.354
            c-1.28,1.555-2.334,1.839-4.271,1.202c-7.376-2.434-13.297-6.943-18.624-12.402c-7.495-7.681-10.599-17.021-10.427-27.599
            c1.664-0.561,3.377-1.044,4.238-2.814c1.818-0.817,3.548,0.059,5.244,0.413c6.636,1.386,13.304,2.49,20.073,2.917
            c2.266,0.064,4.529,0.142,6.793,0.19c12.748,0.274,24.761-2.16,35.43-9.576c0.263,1.501-0.983,2.219-1.729,3.131
            c-8.187,10.002-16.422,19.969-24.635,29.954C285.934,310.124,285.144,311.23,284.32,312.306z"/>
        <path fill-rule="evenodd" clip-rule="evenodd" fill="#00E64B" d="M206.788,319.671c-2.93-1.862-5.486-4.195-8.16-6.388
            c-1.357-1.111-1.618-2.088-0.978-3.751c3.221-8.355,7.842-15.704,14.809-21.458c0.429-0.354,0.808-0.771,1.211-1.16
            c7.078-4.813,14.771-7.496,23.446-6.803c0.279,2.011,1.227,3.529,3.183,4.3c-0.184,4.323-2.01,8.317-2.501,12.582
            c-1.638,14.208-2.517,28.367,2.33,42.227c1.243,3.55,2.901,6.878,4.91,10.041c0.608,0.952,1.411,1.789,1.317,3.033
            c-3.576-2.12-6.441-5.141-9.695-7.667c0.094-0.488-0.067-0.885-0.438-1.2c-3.149-2.688-5.185-6.137-7.352-9.637
            c-4.411-7.109-10.391-12.279-19.518-12.022l0.071,0.001c-0.242-0.246-0.485-0.494-0.727-0.741l0.051,0.059
            c-0.244-0.244-0.488-0.492-0.73-0.738l0.047,0.046c-0.242-0.241-0.485-0.484-0.729-0.727l-0.006,0.154
            C207.217,319.522,207.09,319.278,206.788,319.671z"/>
        <path fill-rule="evenodd" clip-rule="evenodd" fill="#0072A0" d="M313.159,275.991c-10.669,7.416-22.683,9.851-35.43,9.576
            c-2.264-0.049-4.527-0.126-6.793-0.19c0.292-0.503,0.674-1.022,1.253-1.053c3-0.157,5.913-0.912,8.837-1.333
            c6.663-0.956,13.109-2.49,19.115-5.387c5.068-2.443,9.154-6.167,11.21-11.683c1.467-3.932-0.585-6.957-4.797-7.001
            c-1.473-0.014-2.945-0.045-4.416-0.067c0.529-1.256,1.797-1.666,2.789-2.368c5.441-3.855,10.677-7.948,15.479-12.594
            c1.485-1.436,2.134-2.896,2.121-5.027c-0.098-15.308-0.049-30.619-0.027-45.929c0.004-2.265,0.116-4.529,0.179-6.794
            c0.486,0.436,0.403,1.01,0.399,1.574c-0.036,17.723,0.075,35.444-0.171,53.163c-0.132,9.539-1.136,19.03-4.365,28.124
            C317.512,271.897,316.356,274.744,313.159,275.991z"/>
        <path fill-rule="evenodd" clip-rule="evenodd" fill="#009E01" d="M209.353,321.768c9.127-0.257,15.107,4.913,19.518,12.022
            c2.167,3.5,4.203,6.949,7.352,9.637c0.37,0.315,0.532,0.712,0.438,1.2c-8.133-6.623-16.265-13.246-24.4-19.867
            c-0.875-0.71-1.758-1.409-2.638-2.113C209.532,322.353,209.443,322.06,209.353,321.768z"/>
        <path fill-rule="evenodd" clip-rule="evenodd" fill="#2E4F7C" d="M164.398,314.877c-2.917,2.166-3.496,5.077-3.457,8.608
            c0.188,16.889,0.122,33.778,0.147,50.669c-1.33-0.748-0.729-2.023-0.73-3.047c-0.042-17.003-0.15-34.008,0.021-51.007
            c0.079-8.037,1.072-16.025,2.923-23.87c1.016-4.302,2.362-8.464,5.944-11.446c0.423-0.003,0.845-0.006,1.268-0.011
            c0.946,1.048-0.237,1.433-0.703,1.821c-2.471,2.072-3.67,4.847-4.609,7.806c-1.896,5.989-1.911,12.259-2.765,18.407
            C162.236,314.254,162.976,314.914,164.398,314.877z"/>
        <path fill-rule="evenodd" clip-rule="evenodd" fill="#265734" d="M276.19,361.166c18.794,0.024,37.586,0.062,56.378,0.041
            c1.261-0.002,2.753,0.614,3.754-0.798c0.486,0.407,0.84,1.015,0.089,1.277c-0.823,0.284-1.78,0.231-2.678,0.231
            c-17.442,0.025-34.883,0.059-52.325,0.018C279.664,361.932,277.772,362.462,276.19,361.166z"/>
        <path fill-rule="evenodd" clip-rule="evenodd" fill="#8DC3FD" d="M170.514,284.773c-0.423,0.005-0.845,0.008-1.268,0.011
            c-0.045-0.623,0.505-0.753,0.866-1.038c0.167,0.146,0.324,0.301,0.475,0.463C170.576,284.397,170.551,284.588,170.514,284.773z"/>
        <path fill-rule="evenodd" clip-rule="evenodd" fill="#DA2B00" d="M246.009,280.53c-0.113-2.158-1.1-3.749-3.069-4.697
            c2.166-8.803,3.495-17.749,3.944-26.782c0.516-10.352-1.015-20.474-4.675-30.391c1.797-0.501,2.853,0.432,3.868,1.471
            c7.991,8.201,16.872,15.335,26.066,22.129c4.7,3.472,7.525,8.074,6.964,14.279c-0.13,1.441-0.684,3.32,1.545,3.958
            c-2.517,5.023-6.424,8.874-10.559,12.532C262.897,278.196,254.872,280.703,246.009,280.53z"/>
        <path fill-rule="evenodd" clip-rule="evenodd" fill="#DA2B00" d="M228.292,238.869c-1.839,0.378-3.016-0.525-4.048-1.261
            c-5.44-3.871-11.469-4.377-17.695-3.03c-6.998,1.514-12.757-0.184-18.103-4.996c-4.138-3.727-7.988-7.718-12.047-11.508
            c-1.521-1.42-2.509-3.158-3.567-4.918c-1.906-3.175-0.454-5.061,2.532-6.389c1.318-0.587,2.836-1.004,4.266-1.011
            c6.799-0.028,13.548-1.169,20.363-0.769c2.329,0.135,4.607,1.186,7.028,0.261c0.725-0.278,1.437,0.553,1.937,1.184
            c7.641,9.637,14.127,19.984,19.113,31.247C228.202,237.972,228.195,238.325,228.292,238.869z"/>
        <path fill-rule="evenodd" clip-rule="evenodd" fill="#DA2B00" d="M281.863,258.252c-0.104,0.927-0.55,1.664-1.262,2.253
            C280.277,259.337,280.761,258.621,281.863,258.252z"/>
        <path fill-rule="evenodd" clip-rule="evenodd" fill="#DA2B00" d="M282.669,256.859c-0.16,0.563-0.228,1.179-0.859,1.466
            C281.779,257.651,281.94,257.088,282.669,256.859z"/>
        <path fill-rule="evenodd" clip-rule="evenodd" fill="#008ABF" d="M246.009,280.53c8.862,0.173,16.888-2.334,24.083-7.501
            c2.944,0.286,5.271-1.533,7.899-2.322c3.107-0.932,5.767-2.992,8.997-3.615c0.293-0.194,0.584-0.389,0.88-0.582
            c0.157-0.105,0.328-0.143,0.514-0.113c0.631,0.005,1.242-0.039,1.571-0.705l-0.046,0.027c0.589,0.004,1.122-0.108,1.408-0.707
            l-0.039,0.023c0.589,0.01,1.117-0.105,1.399-0.707l-0.031,0.021c0.59,0.019,1.112-0.104,1.396-0.699l-0.029,0.015
            c0.592,0.023,1.108-0.105,1.391-0.697l-0.028,0.028c0.238-0.237,0.474-0.476,0.713-0.716l-0.036,0.026
            c0.589,0.01,1.127-0.09,1.402-0.705l-0.032,0.017c0.594,0.027,1.114-0.091,1.392-0.696l-0.027,0.028
            c0.238-0.239,0.478-0.479,0.713-0.718l-0.04,0.026c0.594,0.016,1.131-0.077,1.402-0.7l-0.025,0.013
            c0.596,0.036,1.114-0.084,1.387-0.695l-0.086-0.023c1.471,0.022,2.943,0.053,4.416,0.067c4.212,0.044,6.265,3.069,4.797,7.001
            c-2.056,5.516-6.143,9.24-11.21,11.683c-6.006,2.897-12.453,4.431-19.115,5.387c-2.924,0.421-5.836,1.176-8.837,1.333
            c-0.579,0.03-0.961,0.55-1.253,1.053c-6.769-0.427-13.437-1.531-20.073-2.917c-1.696-0.354-3.425-1.23-5.244-0.413
            C245.456,281.468,245.755,281.006,246.009,280.53z"/>
        <path fill-rule="evenodd" clip-rule="evenodd" fill="#0072A0" d="M294.042,263.651c-0.284,0.594-0.806,0.718-1.396,0.699
            C292.895,263.684,293.427,263.588,294.042,263.651z"/>
        <path fill-rule="evenodd" clip-rule="evenodd" fill="#0072A0" d="M292.677,264.329c-0.282,0.601-0.81,0.717-1.399,0.707
            C291.546,264.405,292.071,264.288,292.677,264.329z"/>
        <path fill-rule="evenodd" clip-rule="evenodd" fill="#0072A0" d="M291.317,265.012c-0.286,0.599-0.818,0.71-1.408,0.707
            C290.196,265.123,290.718,264.994,291.317,265.012z"/>
        <path fill-rule="evenodd" clip-rule="evenodd" fill="#0072A0" d="M289.955,265.692c-0.329,0.667-0.94,0.71-1.571,0.705
            C288.782,265.88,289.323,265.686,289.955,265.692z"/>
        <path fill-rule="evenodd" clip-rule="evenodd" fill="#0072A0" d="M297.455,261.602c-0.274,0.615-0.813,0.715-1.402,0.705
            C296.362,261.756,296.854,261.575,297.455,261.602z"/>
        <path fill-rule="evenodd" clip-rule="evenodd" fill="#0072A0" d="M298.814,260.922c-0.278,0.605-0.798,0.723-1.392,0.696
            C297.688,260.988,298.19,260.833,298.814,260.922z"/>
        <path fill-rule="evenodd" clip-rule="evenodd" fill="#0072A0" d="M300.863,259.558c-0.271,0.623-0.808,0.716-1.402,0.7
            C299.777,259.724,300.252,259.505,300.863,259.558z"/>
        <path fill-rule="evenodd" clip-rule="evenodd" fill="#0072A0" d="M302.225,258.876c-0.273,0.611-0.792,0.731-1.387,0.695
            C301.09,258.917,301.573,258.732,302.225,258.876z"/>
        <path fill-rule="evenodd" clip-rule="evenodd" fill="#0072A0" d="M295.404,262.969c-0.283,0.592-0.799,0.721-1.391,0.697
            C294.241,262.965,294.763,262.848,295.404,262.969z"/>
        <path fill-rule="evenodd" clip-rule="evenodd" fill="#0072A0" d="M287.87,266.51c-0.296,0.193-0.587,0.388-0.88,0.582
            C287.283,266.898,287.574,266.704,287.87,266.51z"/>
        <path fill-rule="evenodd" clip-rule="evenodd" fill="#0072A0" d="M296.089,262.281c-0.239,0.24-0.475,0.479-0.713,0.716
            C295.36,262.508,295.69,262.358,296.089,262.281z"/>
        <path fill-rule="evenodd" clip-rule="evenodd" fill="#0072A0" d="M299.5,260.232c-0.235,0.24-0.475,0.479-0.713,0.718
            C298.793,260.481,299.105,260.316,299.5,260.232z"/>
        <path fill-rule="evenodd" clip-rule="evenodd" fill="#3468D5" d="M237.244,278.958c-0.042,0.385-0.086,0.77-0.128,1.153
            c-8.676-0.692-16.369,1.991-23.446,6.803c-1.562-0.154-2.807,0.765-4.19,1.224c-16.977,5.631-31.681,15.083-45.082,26.739
            c-1.423,0.037-2.162-0.623-1.961-2.069c0.854-6.148,0.869-12.418,2.765-18.407c0.938-2.959,2.138-5.733,4.609-7.806
            c0.466-0.389,1.649-0.773,0.703-1.821c0.037-0.186,0.062-0.376,0.072-0.564c14.045-8.999,29.602-9.716,45.578-8.514
            C223.295,276.232,230.22,277.859,237.244,278.958z"/>
        <path fill-rule="evenodd" clip-rule="evenodd" fill="#009E01" d="M206.788,319.671c0.302-0.393,0.43-0.148,0.542,0.15
            l-0.305,0.045L206.788,319.671z"/>
        <path fill-rule="evenodd" clip-rule="evenodd" fill="#009E01" d="M207.336,319.667c0.243,0.242,0.486,0.485,0.729,0.727
            C207.592,320.385,207.271,320.218,207.336,319.667z"/>
        <path fill-rule="evenodd" clip-rule="evenodd" fill="#009E01" d="M208.018,320.348c0.243,0.246,0.487,0.494,0.73,0.738
            C208.321,321.022,208.015,320.837,208.018,320.348z"/>
        <path fill-rule="evenodd" clip-rule="evenodd" fill="#009E01" d="M208.697,321.027c0.242,0.247,0.485,0.495,0.727,0.741
            C209.045,321.655,208.754,321.456,208.697,321.027z"/>
    </g>
    <g>
        <text transform="matrix(1 0 0 1 336.3232 333.1924)" fill="#A8AFB8" font-family="'RechargeRg-Bold'" font-size="96.1703">Airflow</text>
    </g>
</g>
</svg>
