<svg xmlns="http://www.w3.org/2000/svg" class="fxs-portal-svg" id="FxSymbol0-0fb" role="presentation" viewBox="0 0 23.981 22" focusable="false" xmlns:xlink="http://www.w3.org/1999/xlink" xmlns:svg="http://www.w3.org/2000/svg">
<g>
<title/>
<title>Cosmos_DB_2</title>
<path class="msportalfx-svg-c15" fill="#59b4d9" d="M 19.8 9.8 A 7.98 7.98 0 1 1 10.3 4 a 7.95 7.95 0 0 1 9.5 5.8 Z"/>
<path class="msportalfx-svg-c01" opacity="0.5" fill="#ffffff" d="M 11 14.9 a 2.112 2.112 0 0 0 -2.1 -2.1 h -0.4 A 2.015 2.015 0 0 0 7 10.3 H 4.4 a 7.8 7.8 0 0 0 1.9 6.8 h 2.6 a 2.2 2.2 0 0 0 2.1 -2.2 Z m 2.6 -8.7 v 0.4 h -0.9 a 2.2 2.2 0 0 0 0 4.4 H 20 a 7.624 7.624 0 0 0 -4.1 -6.2 H 15 a 1.367 1.367 0 0 0 -1.4 1.4 Z m 6.4 6.3 h -4.3 a 1.793 1.793 0 0 0 -1.8 1.8 a 2.92 2.92 0 0 0 0.2 0.9 a 1.812 1.812 0 0 0 -1.2 2.2 a 1.631 1.631 0 0 0 1.7 1.2 h 1.2 a 7.947 7.947 0 0 0 4.2 -6.1 Z"/>
<path class="msportalfx-svg-c13" fill="#b8d432" d="M 3.2 6.4 a 0.215 0.215 0 0 1 -0.2 -0.2 A 2.8 2.8 0 0 0 0.2 3.4 c -0.1 0.1 -0.2 -0.1 -0.2 -0.2 A 0.215 0.215 0 0 1 0.2 3 A 2.8 2.8 0 0 0 3 0.2 c 0 -0.2 0.1 -0.2 0.2 -0.2 s 0.3 0 0.3 0.2 A 2.8 2.8 0 0 0 6.3 3 a 0.2 0.2 0 0 1 0 0.4 a 2.8 2.8 0 0 0 -2.8 2.8 c 0 0.1 -0.1 0.2 -0.3 0.2 Z"/>
<path class="msportalfx-svg-c15" fill="#59b4d9" d="M 20.3 22 c -0.1 0 -0.1 0 -0.1 -0.1 a 1.666 1.666 0 0 0 -1.7 -1.6 c -0.1 0 -0.1 0 -0.1 -0.1 s 0 -0.1 0.1 -0.1 a 1.735 1.735 0 0 0 1.7 -1.6 c 0 -0.1 0 -0.1 0.1 -0.1 s 0.1 0 0.1 0.1 a 1.666 1.666 0 0 0 1.7 1.6 c 0.1 0 0.1 0 0.1 0.1 s 0 0.1 -0.1 0.1 a 1.735 1.735 0 0 0 -1.7 1.6 c 0.1 0.1 0 0.1 -0.1 0.1 Z"/>
<path d="M 23.7 4.6 c -0.8 -1.2 -2.6 -1.5 -5.5 -0.8 a 19.752 19.752 0 0 0 -2.6 0.8 a 7.837 7.837 0 0 1 1.5 1 c 0.5 -0.1 1 -0.3 1.4 -0.4 a 9.079 9.079 0 0 1 2.3 -0.3 c 0.9 0 1.4 0.2 1.6 0.5 c 0.3 0.5 0 1.7 -1.6 3.6 a 9.428 9.428 0 0 1 -1 1 a 34.078 34.078 0 0 1 -6 4.6 A 27.9 27.9 0 0 1 7 17.7 c -2.9 0.9 -4.9 0.9 -5.3 0.2 s 0.4 -2.5 2.6 -4.6 a 11.019 11.019 0 0 1 -0.2 -1.8 C 0.7 14.6 -0.4 17.3 0.4 18.7 a 3.51 3.51 0 0 0 3 1.2 a 15.047 15.047 0 0 0 5.1 -1.1 a 33.625 33.625 0 0 0 6 -3 a 41.869 41.869 0 0 0 5.4 -4 a 17.044 17.044 0 0 0 1.9 -1.9 c 2 -2.3 2.6 -4.1 1.9 -5.3 Z"/>
</g>
</svg>
