<svg xmlns="http://www.w3.org/2000/svg" xmlns:xlink="http://www.w3.org/1999/xlink" class="fxs-portal-svg" id="FxSymbol0-05f" role="presentation" viewBox="0 0 50 50" focusable="false">
<path fill="#3E3E3E" d="M44,50H6c-3.314,0-6-2.686-6-6V8h50v36C50,47.314,47.314,50,44,50z"/>
<path fill="#804998" d="M41.45,37c-2.235,0-4.16-0.953-5.038-2.326c-0.195-0.305-0.631-0.306-0.827-0.002
C34.699,36.046,32.757,37,30.5,37c-2.258,0-4.202-0.956-5.087-2.331c-0.195-0.304-0.631-0.304-0.826,0
C23.702,36.044,21.758,37,19.5,37c-2.255,0-4.196-0.952-5.082-2.324c-0.197-0.305-0.633-0.303-0.828,0.003
C12.717,36.049,10.812,37,8.6,37c-1.491,0-2.841-0.432-3.831-1.133C4.446,35.639,4,35.893,4,36.288V46h42V35.287
C44.997,36.322,43.334,37,41.45,37z"/>
<path opacity="0.1" fill="#FFFFFF" enable-background="new    " d="M41.45,37c-2.235,0-4.16-0.953-5.038-2.326
c-0.195-0.305-0.631-0.306-0.827-0.002C34.699,36.046,32.757,37,30.5,37c-2.258,0-4.202-0.956-5.087-2.331
c-0.195-0.304-0.631-0.304-0.826,0C23.702,36.044,21.758,37,19.5,37c-2.255,0-4.196-0.952-5.082-2.324
c-0.197-0.305-0.633-0.303-0.828,0.003C12.717,36.049,10.812,37,8.6,37c-1.491,0-2.841-0.432-3.831-1.133
C4.446,35.639,4,35.893,4,36.288V46h42V35.287C44.997,36.322,43.334,37,41.45,37z"/>
<path opacity="0.2" fill="#FFFFFF" enable-background="new    " d="M41.45,37c-2.235,0-4.16-0.953-5.038-2.326
c-0.195-0.305-0.631-0.306-0.827-0.002C34.699,36.046,32.757,37,30.5,37c-2.258,0-4.202-0.956-5.087-2.331
c-0.195-0.304-0.631-0.304-0.826,0C23.702,36.044,21.758,37,19.5,37c-2.255,0-4.196-0.952-5.082-2.324
c-0.197-0.305-0.633-0.303-0.828,0.003C12.717,36.049,10.812,37,8.6,37c-1.491,0-2.841-0.432-3.831-1.133
C4.446,35.639,4,35.893,4,36.288v1.901C4.982,39.279,6.674,40,8.6,40c2.687,0,4.92-1.402,5.401-3.254
C14.49,38.598,16.764,40,19.5,40c2.738,0,5.013-1.404,5.5-3.258C25.487,38.596,27.762,40,30.5,40c2.737,0,5.011-1.403,5.5-3.256
C36.484,38.597,38.738,40,41.45,40c1.885,0,3.547-0.678,4.55-1.713v-3C44.997,36.322,43.334,37,41.45,37z"/>
<path fill="#59B4D9" d="M41.45,7c-2.235,0-4.16-0.953-5.038-2.326c-0.195-0.305-0.631-0.306-0.827-0.002
C34.699,6.046,32.757,7,30.5,7c-2.258,0-4.202-0.956-5.087-2.331c-0.195-0.304-0.631-0.304-0.826,0C23.702,6.044,21.758,7,19.5,7
c-2.255,0-4.196-0.952-5.082-2.324c-0.197-0.305-0.633-0.303-0.828,0.003C12.717,6.049,10.812,7,8.6,7
C7.109,7,5.759,6.568,4.769,5.867C4.446,5.639,4,5.893,4,6.288V16h42V6.349c0-0.391-0.438-0.647-0.762-0.428
C44.247,6.59,42.916,7,41.45,7z"/>
<path fill="#B8D432" d="M41.45,22c-2.235,0-4.16-0.953-5.038-2.326c-0.195-0.305-0.631-0.306-0.827-0.002
C34.699,21.046,32.757,22,30.5,22c-2.258,0-4.202-0.956-5.087-2.331c-0.195-0.304-0.631-0.304-0.826,0
C23.702,21.044,21.758,22,19.5,22c-2.255,0-4.196-0.952-5.082-2.324c-0.197-0.305-0.633-0.303-0.828,0.003
C12.717,21.049,10.812,22,8.6,22c-1.491,0-2.841-0.432-3.831-1.133C4.446,20.639,4,20.893,4,21.288V31h42V20.287
C44.997,21.322,43.334,22,41.45,22z"/>
<path opacity="0.2" fill="#FFFFFF" enable-background="new    " d="M41.45,22c-2.235,0-4.16-0.953-5.038-2.326
c-0.195-0.305-0.631-0.306-0.827-0.002C34.699,21.046,32.757,22,30.5,22c-2.258,0-4.202-0.956-5.087-2.331
c-0.195-0.304-0.631-0.304-0.826,0C23.702,21.044,21.758,22,19.5,22c-2.255,0-4.196-0.952-5.082-2.324
c-0.197-0.305-0.633-0.303-0.828,0.003C12.717,21.049,10.812,22,8.6,22c-1.491,0-2.841-0.432-3.831-1.133
C4.446,20.639,4,20.893,4,21.288v1.901C4.982,24.279,6.674,25,8.6,25c2.687,0,4.92-1.402,5.401-3.254
C14.49,23.598,16.764,25,19.5,25c2.738,0,5.013-1.404,5.5-3.258C25.487,23.596,27.762,25,30.5,25c2.737,0,5.011-1.403,5.5-3.256
C36.484,23.597,38.738,25,41.45,25c1.885,0,3.547-0.678,4.55-1.713v-3C44.997,21.322,43.334,22,41.45,22z"/>
</svg>
