<svg width="453" height="175" viewBox="0 0 453 175" fill="none" xmlns="http://www.w3.org/2000/svg">
<g clip-path="url(#clip0)">
<path d="M4.18587 172.44L86.3959 88.1685C86.9109 87.6406 87.0096 86.8244 86.5801 86.2249C81.5792 79.2442 72.3564 78.0343 68.9375 73.3445C58.8101 59.4522 56.2405 51.5891 51.8887 52.0768C51.5847 52.1109 51.3137 52.2745 51.1001 52.4934L21.4015 82.9367C4.31645 100.45 1.86636 139.01 1.41703 171.298C1.39673 172.757 3.1669 173.484 4.18587 172.44Z" fill="#017CEE"/>
<path d="M172.44 170.357L88.1685 88.1466C87.6406 87.6316 86.8244 87.5328 86.2249 87.9623C79.2443 92.9633 78.0344 102.186 73.3445 105.605C59.4522 115.732 51.5891 118.302 52.0768 122.654C52.1109 122.958 52.2745 123.229 52.4935 123.442L82.9367 153.141C100.45 170.226 139.01 172.676 171.298 173.125C172.757 173.146 173.484 171.376 172.44 170.357Z" fill="#00AD46"/>
<path fill-rule="evenodd" clip-rule="evenodd" d="M82.9363 153.141C73.3696 143.809 68.9312 125.346 87.2715 87.2725C57.4647 100.593 47.0194 118.103 52.1578 123.116L82.9363 153.141Z" fill="#04D659"/>
<path d="M170.355 2.10462L88.1451 86.376C87.6301 86.9039 87.5314 87.72 87.9609 88.3195C92.9618 95.3002 102.185 96.5101 105.603 101.2C115.731 115.092 118.301 122.955 122.652 122.468C122.956 122.434 123.227 122.27 123.441 122.051L153.139 91.6077C170.225 74.0942 172.675 35.5346 173.124 3.24627C173.144 1.78719 171.374 1.0601 170.355 2.10462Z" fill="#00C7D4"/>
<path fill-rule="evenodd" clip-rule="evenodd" d="M153.14 91.6077C143.807 101.174 125.344 105.613 87.2705 87.2725C100.591 117.079 118.101 127.525 123.114 122.386L153.14 91.6077Z" fill="#11E1EE"/>
<path d="M2.10315 4.18733L86.3745 86.3973C86.9024 86.9123 87.7185 87.0111 88.3181 86.5816C95.2987 81.5807 96.5086 72.3579 101.198 68.939C115.091 58.8116 122.954 56.242 122.466 51.8902C122.432 51.5862 122.268 51.3152 122.05 51.1016L91.6063 21.403C74.0928 4.31792 35.5331 1.86783 3.2448 1.4185C1.78572 1.39819 1.05863 3.16836 2.10315 4.18733Z" fill="#E43921"/>
<path fill-rule="evenodd" clip-rule="evenodd" d="M91.6057 21.4025C101.172 30.7352 105.611 49.1977 87.2705 87.2714C117.077 73.9511 127.523 56.4408 122.384 51.4281L91.6057 21.4025Z" fill="#FF7557"/>
<path fill-rule="evenodd" clip-rule="evenodd" d="M21.4025 82.9368C30.7352 73.3701 49.1977 68.9317 87.2714 87.272C73.951 57.4652 56.4408 47.0199 51.4281 52.1583L21.4025 82.9368Z" fill="#0CB6FF"/>
<circle cx="87.2838" cy="87.2606" r="3.67606" transform="rotate(-0.709386 87.2838 87.2606)" fill="#4A4848"/>
<path d="M196.029 57.4277C195.856 57.4277 195.704 57.3627 195.574 57.2326C195.444 57.1025 195.379 56.9507 195.379 56.7773C195.379 56.6038 195.39 56.4846 195.411 56.4196L203.477 35.3779C203.65 34.9009 203.997 34.6624 204.518 34.6624H206.729C207.249 34.6624 207.596 34.9009 207.77 35.3779L215.803 56.4196L215.868 56.7773C215.868 56.9507 215.803 57.1025 215.673 57.2326C215.543 57.3627 215.391 57.4277 215.217 57.4277H213.559C213.32 57.4277 213.136 57.3735 213.006 57.2651C212.876 57.135 212.789 57.0049 212.746 56.8749L210.957 52.2567H200.29L198.501 56.8749C198.458 57.0049 198.36 57.135 198.208 57.2651C198.078 57.3735 197.905 57.4277 197.688 57.4277H196.029ZM210.014 49.4599L205.623 37.9146L201.233 49.4599H210.014ZM219.703 63.6069C219.486 63.6069 219.302 63.531 219.15 63.3793C219.02 63.2492 218.955 63.0757 218.955 62.8589V41.2643C218.955 41.0475 219.02 40.8741 219.15 40.744C219.302 40.5922 219.486 40.5163 219.703 40.5163H221.199C221.416 40.5163 221.589 40.5922 221.719 40.744C221.871 40.8741 221.947 41.0475 221.947 41.2643V42.6953C223.161 41.0258 224.939 40.1911 227.28 40.1911C229.557 40.1911 231.259 40.9066 232.386 42.3376C233.535 43.7685 234.153 45.6114 234.24 47.8663C234.262 48.1048 234.273 48.4734 234.273 48.972C234.273 49.4707 234.262 49.8393 234.24 50.0778C234.153 52.3109 233.535 54.1539 232.386 55.6065C231.237 57.0375 229.535 57.753 227.28 57.753C225.026 57.753 223.269 56.9399 222.012 55.3138V62.8589C222.012 63.0757 221.947 63.2492 221.817 63.3793C221.687 63.531 221.513 63.6069 221.296 63.6069H219.703ZM226.597 55.1187C228.137 55.1187 229.253 54.6417 229.947 53.6877C230.663 52.7337 231.053 51.4762 231.118 49.9152C231.14 49.6984 231.151 49.384 231.151 48.972C231.151 44.8743 229.633 42.8254 226.597 42.8254C225.101 42.8254 223.974 43.3241 223.215 44.3214C222.478 45.297 222.077 46.4678 222.012 47.8338L221.979 49.0696L222.012 50.338C222.055 51.6171 222.467 52.7337 223.248 53.6877C224.028 54.6417 225.145 55.1187 226.597 55.1187ZM243.011 57.753C241.949 57.753 240.963 57.5361 240.052 57.1025C239.141 56.6689 238.415 56.0835 237.873 55.3463C237.353 54.5875 237.092 53.7528 237.092 52.8421C237.092 51.4112 237.678 50.2404 238.849 49.3298C240.041 48.3975 241.645 47.7904 243.662 47.5085L248.508 46.8256V45.8824C248.508 43.671 247.239 42.5652 244.703 42.5652C243.749 42.5652 242.968 42.7712 242.361 43.1831C241.754 43.5734 241.299 44.0395 240.995 44.5816C240.93 44.7767 240.843 44.9176 240.735 45.0044C240.648 45.0911 240.518 45.1344 240.345 45.1344H238.946C238.751 45.1344 238.578 45.0694 238.426 44.9393C238.296 44.7875 238.231 44.6141 238.231 44.419C238.252 43.8986 238.491 43.3132 238.946 42.6628C239.423 41.9907 240.149 41.4161 241.125 40.9391C242.101 40.4404 243.304 40.1911 244.735 40.1911C247.163 40.1911 248.909 40.7657 249.971 41.9148C251.033 43.0422 251.565 44.4515 251.565 46.1426V56.6797C251.565 56.8965 251.489 57.0808 251.337 57.2326C251.207 57.3627 251.033 57.4277 250.817 57.4277H249.321C249.104 57.4277 248.92 57.3627 248.768 57.2326C248.638 57.0808 248.573 56.8965 248.573 56.6797V55.2813C248.096 55.9751 247.402 56.5605 246.491 57.0375C245.581 57.5145 244.421 57.753 243.011 57.753ZM243.694 55.3138C245.104 55.3138 246.253 54.8585 247.142 53.9479C248.052 53.0156 248.508 51.6822 248.508 49.9477V49.0371L244.735 49.5899C243.196 49.8068 242.036 50.1753 241.255 50.6957C240.475 51.1944 240.084 51.834 240.084 52.6145C240.084 53.4817 240.442 54.1539 241.158 54.6308C241.873 55.0862 242.719 55.3138 243.694 55.3138ZM263.07 57.753C260.75 57.753 258.928 57.1025 257.606 55.8016C256.305 54.4791 255.611 52.6362 255.524 50.2729L255.492 48.972L255.524 47.6712C255.611 45.3079 256.305 43.4758 257.606 42.1749C258.928 40.8524 260.75 40.1911 263.07 40.1911C264.631 40.1911 265.953 40.473 267.037 41.0367C268.121 41.6004 268.924 42.2942 269.444 43.1181C269.986 43.942 270.279 44.7659 270.322 45.5897C270.344 45.8066 270.279 45.98 270.127 46.1101C269.975 46.2402 269.791 46.3052 269.574 46.3052H268.013C267.796 46.3052 267.633 46.2619 267.525 46.1751C267.417 46.0884 267.308 45.915 267.2 45.6548C266.831 44.6141 266.311 43.8769 265.639 43.4433C264.967 42.988 264.121 42.7603 263.102 42.7603C261.758 42.7603 260.685 43.1831 259.882 44.0287C259.102 44.8526 258.679 46.1209 258.614 47.8338L258.582 49.0046L258.614 50.1103C258.679 51.8448 259.102 53.124 259.882 53.9479C260.663 54.7718 261.736 55.1837 263.102 55.1837C264.121 55.1837 264.967 54.9669 265.639 54.5333C266.311 54.078 266.831 53.33 267.2 52.2893C267.308 52.0291 267.417 51.8556 267.525 51.7689C267.633 51.6605 267.796 51.6063 268.013 51.6063H269.574C269.791 51.6063 269.975 51.6822 270.127 51.834C270.279 51.964 270.344 52.1375 270.322 52.3543C270.279 53.1565 269.986 53.9804 269.444 54.826C268.924 55.6499 268.121 56.3437 267.037 56.9074C265.975 57.4711 264.652 57.753 263.07 57.753ZM274.965 57.4277C274.748 57.4277 274.564 57.3627 274.412 57.2326C274.282 57.0808 274.217 56.8965 274.217 56.6797V35.0852C274.217 34.8683 274.282 34.6949 274.412 34.5648C274.564 34.413 274.748 34.3372 274.965 34.3372H276.591C276.808 34.3372 276.981 34.413 277.111 34.5648C277.263 34.6949 277.339 34.8683 277.339 35.0852V42.6628C277.968 41.8606 278.705 41.2535 279.55 40.8415C280.396 40.4079 281.447 40.1911 282.705 40.1911C284.786 40.1911 286.402 40.8632 287.551 42.2075C288.722 43.53 289.307 45.297 289.307 47.5085V56.6797C289.307 56.8965 289.231 57.0808 289.079 57.2326C288.949 57.3627 288.776 57.4277 288.559 57.4277H286.933C286.716 57.4277 286.532 57.3627 286.38 57.2326C286.25 57.0808 286.185 56.8965 286.185 56.6797V47.6712C286.185 46.1318 285.805 44.9393 285.047 44.0937C284.309 43.2482 283.236 42.8254 281.827 42.8254C280.461 42.8254 279.366 43.259 278.542 44.1263C277.74 44.9718 277.339 46.1535 277.339 47.6712V56.6797C277.339 56.8965 277.263 57.0808 277.111 57.2326C276.981 57.3627 276.808 57.4277 276.591 57.4277H274.965ZM300.767 57.753C298.534 57.753 296.745 57.07 295.401 55.7041C294.078 54.3165 293.352 52.4302 293.222 50.0453L293.189 48.9395L293.222 47.8663C293.373 45.5247 294.111 43.6601 295.433 42.2725C296.777 40.8849 298.544 40.1911 300.734 40.1911C303.141 40.1911 305.006 40.9608 306.328 42.5002C307.651 44.0179 308.312 46.0776 308.312 48.6793V49.2322C308.312 49.449 308.236 49.6333 308.084 49.7851C307.954 49.9152 307.781 49.9802 307.564 49.9802H296.311V50.2729C296.376 51.6822 296.799 52.8855 297.58 53.8828C298.382 54.8585 299.433 55.3463 300.734 55.3463C301.732 55.3463 302.545 55.1512 303.173 54.7609C303.824 54.349 304.301 53.9262 304.604 53.4926C304.8 53.2324 304.94 53.0806 305.027 53.0373C305.136 52.9722 305.32 52.9397 305.58 52.9397H307.174C307.369 52.9397 307.531 52.9939 307.661 53.1023C307.792 53.2107 307.857 53.3625 307.857 53.5576C307.857 54.0346 307.553 54.6092 306.946 55.2813C306.361 55.9534 305.526 56.5388 304.442 57.0375C303.379 57.5145 302.154 57.753 300.767 57.753ZM305.222 47.7362V47.6386C305.222 46.1426 304.81 44.9285 303.986 43.9962C303.184 43.0422 302.1 42.5652 300.734 42.5652C299.368 42.5652 298.284 43.0422 297.482 43.9962C296.702 44.9285 296.311 46.1426 296.311 47.6386V47.7362H305.222Z" fill="#51504F"/>
<path d="M195.574 57.2326L195.397 57.4094H195.397L195.574 57.2326ZM195.411 56.4196L195.178 56.33L195.174 56.3405L195.411 56.4196ZM203.477 35.3779L203.71 35.4673L203.712 35.4633L203.477 35.3779ZM207.77 35.3779L207.535 35.4633L207.536 35.467L207.77 35.3779ZM215.803 56.4196L216.049 56.3748C216.046 56.3597 216.042 56.3448 216.036 56.3304L215.803 56.4196ZM215.868 56.7773H216.118C216.118 56.7623 216.116 56.7473 216.114 56.7326L215.868 56.7773ZM215.673 57.2326L215.849 57.4094L215.673 57.2326ZM213.006 57.2651L212.829 57.4419C212.834 57.4472 212.84 57.4523 212.846 57.4572L213.006 57.2651ZM212.746 56.8749L212.983 56.7957L212.979 56.7846L212.746 56.8749ZM210.957 52.2567L211.19 52.1665C211.153 52.0702 211.06 52.0067 210.957 52.0067V52.2567ZM200.29 52.2567V52.0067C200.187 52.0067 200.094 52.0702 200.057 52.1665L200.29 52.2567ZM198.501 56.8749L198.268 56.7845L198.264 56.7958L198.501 56.8749ZM198.208 57.2651L198.368 57.4572L198.371 57.4549L198.208 57.2651ZM210.014 49.4599V49.7099C210.096 49.7099 210.173 49.6695 210.22 49.6018C210.266 49.5341 210.277 49.4478 210.248 49.371L210.014 49.4599ZM205.623 37.9146L205.857 37.8257C205.82 37.7287 205.727 37.6646 205.623 37.6646C205.52 37.6646 205.427 37.7287 205.39 37.8257L205.623 37.9146ZM201.233 49.4599L200.999 49.371C200.97 49.4478 200.98 49.5341 201.027 49.6018C201.074 49.6695 201.151 49.7099 201.233 49.7099V49.4599ZM196.029 57.1777C195.927 57.1777 195.837 57.1422 195.751 57.0558L195.397 57.4094C195.571 57.5832 195.785 57.6777 196.029 57.6777V57.1777ZM195.751 57.0558C195.665 56.9695 195.629 56.8801 195.629 56.7773H195.129C195.129 57.0214 195.223 57.2356 195.397 57.4094L195.751 57.0558ZM195.629 56.7773C195.629 56.6019 195.641 56.5206 195.649 56.4986L195.174 56.3405C195.138 56.4486 195.129 56.6058 195.129 56.7773H195.629ZM195.645 56.509L203.71 35.4673L203.243 35.2884L195.178 56.3301L195.645 56.509ZM203.712 35.4633C203.785 35.2635 203.886 35.1314 204.009 35.0473C204.132 34.9628 204.296 34.9124 204.518 34.9124V34.4124C204.219 34.4124 203.95 34.4812 203.726 34.6352C203.501 34.7896 203.343 35.0153 203.242 35.2924L203.712 35.4633ZM204.518 34.9124H206.729V34.4124H204.518V34.9124ZM206.729 34.9124C206.951 34.9124 207.115 34.9628 207.238 35.0473C207.36 35.1314 207.462 35.2635 207.535 35.4633L208.005 35.2924C207.904 35.0153 207.746 34.7896 207.521 34.6352C207.297 34.4812 207.028 34.4124 206.729 34.4124V34.9124ZM207.536 35.467L215.569 56.5087L216.036 56.3304L208.003 35.2887L207.536 35.467ZM215.557 56.4643L215.622 56.822L216.114 56.7326L216.049 56.3748L215.557 56.4643ZM215.618 56.7773C215.618 56.8801 215.582 56.9695 215.496 57.0558L215.849 57.4094C216.023 57.2356 216.118 57.0214 216.118 56.7773H215.618ZM215.496 57.0558C215.41 57.1422 215.32 57.1777 215.217 57.1777V57.6777C215.461 57.6777 215.676 57.5832 215.849 57.4094L215.496 57.0558ZM215.217 57.1777H213.559V57.6777H215.217V57.1777ZM213.559 57.1777C213.355 57.1777 213.236 57.1313 213.166 57.0731L212.846 57.4572C213.036 57.6158 213.285 57.6777 213.559 57.6777V57.1777ZM213.183 57.0883C213.071 56.9768 213.01 56.8787 212.983 56.7958L212.509 56.9539C212.568 57.1312 212.68 57.2933 212.829 57.4419L213.183 57.0883ZM212.979 56.7846L211.19 52.1665L210.724 52.347L212.513 56.9652L212.979 56.7846ZM210.957 52.0067H200.29V52.5067H210.957V52.0067ZM200.057 52.1665L198.268 56.7846L198.734 56.9652L200.523 52.347L200.057 52.1665ZM198.264 56.7958C198.24 56.8676 198.178 56.962 198.046 57.0753L198.371 57.4549C198.542 57.308 198.675 57.1423 198.738 56.9539L198.264 56.7958ZM198.048 57.0731C197.975 57.1346 197.863 57.1777 197.688 57.1777V57.6777C197.947 57.6777 198.182 57.6125 198.368 57.4572L198.048 57.0731ZM197.688 57.1777H196.029V57.6777H197.688V57.1777ZM210.248 49.371L205.857 37.8257L205.39 38.0034L209.78 49.5487L210.248 49.371ZM205.39 37.8257L200.999 49.371L201.467 49.5487L205.857 38.0034L205.39 37.8257ZM201.233 49.7099H210.014V49.2099H201.233V49.7099ZM219.15 63.3792L218.973 63.556L219.15 63.3792ZM219.15 40.744L219.327 40.9208L219.15 40.744ZM221.719 40.744L221.529 40.9067C221.538 40.9164 221.547 40.9255 221.556 40.9338L221.719 40.744ZM221.947 42.6953H221.697C221.697 42.8036 221.767 42.8996 221.87 42.933C221.973 42.9665 222.085 42.9299 222.149 42.8423L221.947 42.6953ZM232.386 42.3376L232.19 42.4923L232.191 42.4941L232.386 42.3376ZM234.24 47.8663L233.99 47.8759L233.991 47.8889L234.24 47.8663ZM234.24 50.0778L233.991 50.0551L233.99 50.0681L234.24 50.0778ZM232.386 55.6065L232.581 55.763L232.582 55.7616L232.386 55.6065ZM222.012 55.3138L222.21 55.1609C222.144 55.0763 222.032 55.0427 221.931 55.0772C221.83 55.1118 221.762 55.2069 221.762 55.3138H222.012ZM221.817 63.3792L221.64 63.2025C221.635 63.207 221.631 63.2117 221.627 63.2166L221.817 63.3792ZM229.947 53.6877L229.747 53.5377L229.745 53.5407L229.947 53.6877ZM231.118 49.9152L230.869 49.8903C230.869 49.8951 230.868 49.8999 230.868 49.9048L231.118 49.9152ZM223.215 44.3214L223.016 44.17L223.016 44.1707L223.215 44.3214ZM222.012 47.8338L221.762 47.8219L221.762 47.8272L222.012 47.8338ZM221.979 49.0696L221.729 49.063L221.729 49.076L221.979 49.0696ZM222.012 50.3379L221.762 50.3444L221.762 50.3464L222.012 50.3379ZM223.248 53.6877L223.441 53.5294L223.248 53.6877ZM219.703 63.3569C219.552 63.3569 219.431 63.3068 219.327 63.2025L218.973 63.556C219.172 63.7552 219.42 63.8569 219.703 63.8569V63.3569ZM219.327 63.2025C219.252 63.1276 219.205 63.0221 219.205 62.8589H218.705C218.705 63.1293 218.788 63.3708 218.973 63.556L219.327 63.2025ZM219.205 62.8589V41.2643H218.705V62.8589H219.205ZM219.205 41.2643C219.205 41.1011 219.252 40.9957 219.327 40.9208L218.973 40.5672C218.788 40.7525 218.705 40.994 218.705 41.2643H219.205ZM219.327 40.9208C219.431 40.8164 219.552 40.7663 219.703 40.7663V40.2663C219.42 40.2663 219.172 40.368 218.973 40.5672L219.327 40.9208ZM219.703 40.7663H221.199V40.2663H219.703V40.7663ZM221.199 40.7663C221.35 40.7663 221.451 40.8154 221.529 40.9067L221.909 40.5813C221.727 40.369 221.482 40.2663 221.199 40.2663V40.7663ZM221.556 40.9338C221.648 41.012 221.697 41.1135 221.697 41.2643H222.197C222.197 40.9815 222.094 40.7361 221.882 40.5542L221.556 40.9338ZM221.697 41.2643V42.6953H222.197V41.2643H221.697ZM222.149 42.8423C223.309 41.2469 225.006 40.4411 227.28 40.4411V39.9411C224.871 39.9411 223.013 40.8047 221.745 42.5483L222.149 42.8423ZM227.28 40.4411C229.501 40.4411 231.122 41.1363 232.19 42.4923L232.583 42.1828C231.396 40.6769 229.613 39.9411 227.28 39.9411V40.4411ZM232.191 42.4941C233.3 43.8744 233.905 45.6621 233.99 47.8759L234.49 47.8567C234.402 45.5608 233.771 43.6626 232.581 42.181L232.191 42.4941ZM233.991 47.8889C234.012 48.1155 234.023 48.4747 234.023 48.972H234.523C234.523 48.472 234.512 48.094 234.489 47.8436L233.991 47.8889ZM234.023 48.972C234.023 49.4694 234.012 49.8285 233.991 50.0551L234.489 50.1004C234.512 49.85 234.523 49.472 234.523 48.972H234.023ZM233.99 50.0681C233.905 52.2595 233.3 54.0483 232.19 55.4514L232.582 55.7616C233.771 54.2594 234.402 52.3624 234.49 50.0875L233.99 50.0681ZM232.191 55.45C231.101 56.8084 229.479 57.503 227.28 57.503V58.003C229.592 58.003 231.374 57.2665 232.581 55.763L232.191 55.45ZM227.28 57.503C225.094 57.503 223.415 56.7192 222.21 55.1609L221.814 55.4667C223.124 57.1606 224.957 58.003 227.28 58.003V57.503ZM221.762 55.3138V62.8589H222.262V55.3138H221.762ZM221.762 62.8589C221.762 63.0221 221.715 63.1276 221.64 63.2025L221.994 63.556C222.179 63.3708 222.262 63.1293 222.262 62.8589H221.762ZM221.627 63.2166C221.549 63.3078 221.447 63.3569 221.296 63.3569V63.8569C221.579 63.8569 221.825 63.7542 222.007 63.5419L221.627 63.2166ZM221.296 63.3569H219.703V63.8569H221.296V63.3569ZM226.597 55.3687C228.19 55.3687 229.395 54.8724 230.149 53.8348L229.745 53.5407C229.112 54.411 228.084 54.8687 226.597 54.8687V55.3687ZM230.147 53.8377C230.901 52.8325 231.301 51.5216 231.368 49.9256L230.868 49.9048C230.805 51.4308 230.424 52.635 229.747 53.5377L230.147 53.8377ZM231.367 49.94C231.39 49.7106 231.401 49.3864 231.401 48.972H230.901C230.901 49.3816 230.89 49.6861 230.869 49.8903L231.367 49.94ZM231.401 48.972C231.401 46.8996 231.018 45.2998 230.213 44.2132C229.398 43.1126 228.177 42.5754 226.597 42.5754V43.0754C228.053 43.0754 229.109 43.5626 229.811 44.5109C230.524 45.4731 230.901 46.9467 230.901 48.972H231.401ZM226.597 42.5754C225.04 42.5754 223.832 43.0982 223.016 44.17L223.414 44.4728C224.116 43.5499 225.163 43.0754 226.597 43.0754V42.5754ZM223.016 44.1707C222.245 45.1912 221.829 46.4119 221.762 47.8219L222.262 47.8457C222.325 46.5238 222.711 45.4029 223.415 44.4721L223.016 44.1707ZM221.762 47.8272L221.729 49.063L222.229 49.0762L222.262 47.8403L221.762 47.8272ZM221.729 49.076L221.762 50.3444L222.262 50.3315L222.229 49.0632L221.729 49.076ZM221.762 50.3464C221.807 51.6781 222.238 52.8479 223.054 53.846L223.441 53.5294C222.697 52.6196 222.303 51.5562 222.262 50.3295L221.762 50.3464ZM223.054 53.846C223.891 54.8687 225.085 55.3687 226.597 55.3687V54.8687C225.205 54.8687 224.166 54.4147 223.441 53.5294L223.054 53.846ZM240.052 57.1025L240.159 56.8768L240.052 57.1025ZM237.873 55.3463L237.667 55.4878L237.672 55.4944L237.873 55.3463ZM238.849 49.3298L239.002 49.5271L239.003 49.5267L238.849 49.3298ZM243.662 47.5085L243.696 47.7561L243.697 47.7561L243.662 47.5085ZM248.508 46.8256L248.543 47.0731C248.666 47.0557 248.758 46.9502 248.758 46.8256H248.508ZM242.361 43.1831L242.496 43.3935L242.501 43.39L242.361 43.1831ZM240.995 44.5816L240.777 44.4594C240.769 44.4731 240.763 44.4876 240.758 44.5025L240.995 44.5816ZM240.735 45.0044L240.579 44.8091C240.571 44.8149 240.565 44.8211 240.558 44.8276L240.735 45.0044ZM238.426 44.9393L238.236 45.102C238.244 45.1117 238.253 45.1208 238.263 45.1291L238.426 44.9393ZM238.231 44.419L237.981 44.4085V44.419H238.231ZM238.946 42.6628L238.742 42.5181L238.741 42.5194L238.946 42.6628ZM241.125 40.9391L241.235 41.1637L241.239 41.1617L241.125 40.9391ZM249.971 41.9148L249.788 42.0845L249.789 42.0862L249.971 41.9148ZM251.337 57.2326L251.514 57.4094L251.337 57.2326ZM248.768 57.2326L248.578 57.3953C248.586 57.405 248.595 57.4141 248.605 57.4224L248.768 57.2326ZM248.573 55.2813H248.823C248.823 55.1718 248.751 55.075 248.647 55.0425C248.542 55.0101 248.429 55.0494 248.367 55.1397L248.573 55.2813ZM246.491 57.0375L246.375 56.816L246.491 57.0375ZM247.142 53.9479L246.963 53.7732L246.963 53.7733L247.142 53.9479ZM248.508 49.0371H248.758C248.758 48.9644 248.726 48.8954 248.671 48.8479C248.616 48.8004 248.543 48.7792 248.471 48.7897L248.508 49.0371ZM244.735 49.5899L244.77 49.8375L244.771 49.8373L244.735 49.5899ZM241.255 50.6957L241.39 50.9064L241.394 50.9037L241.255 50.6957ZM241.158 54.6308L241.019 54.8389L241.023 54.8418L241.158 54.6308ZM243.011 57.503C241.984 57.503 241.035 57.2936 240.159 56.8768L239.944 57.3282C240.89 57.7787 241.914 58.003 243.011 58.003V57.503ZM240.159 56.8768C239.282 56.4591 238.59 55.8989 238.074 55.1982L237.672 55.4944C238.24 56.2681 239 56.8787 239.944 57.3282L240.159 56.8768ZM238.079 55.2049C237.587 54.4873 237.342 53.7017 237.342 52.8421H236.842C236.842 53.8038 237.118 54.6877 237.667 55.4877L238.079 55.2049ZM237.342 52.8421C237.342 51.4915 237.89 50.3924 239.002 49.5271L238.695 49.1324C237.466 50.0884 236.842 51.3308 236.842 52.8421H237.342ZM239.003 49.5267C240.15 48.6293 241.709 48.0339 243.696 47.7561L243.627 47.2609C241.582 47.5469 239.932 48.1657 238.695 49.1328L239.003 49.5267ZM243.697 47.7561L248.543 47.0731L248.473 46.578L243.627 47.261L243.697 47.7561ZM248.758 46.8256V45.8824H248.258V46.8256H248.758ZM248.758 45.8824C248.758 44.7286 248.425 43.8203 247.721 43.2061C247.023 42.5976 246.002 42.3152 244.703 42.3152V42.8152C245.94 42.8152 246.822 43.0857 247.392 43.583C247.956 44.0745 248.258 44.8248 248.258 45.8824H248.758ZM244.703 42.3152C243.713 42.3152 242.88 42.5289 242.221 42.9763L242.501 43.39C243.056 43.0135 243.784 42.8152 244.703 42.8152V42.3152ZM242.226 42.9728C241.59 43.3816 241.103 43.8763 240.777 44.4594L241.213 44.7037C241.494 44.2028 241.918 43.7651 242.496 43.3934L242.226 42.9728ZM240.758 44.5025C240.701 44.6726 240.635 44.7637 240.579 44.8091L240.891 45.1996C241.051 45.0715 241.159 44.8808 241.232 44.6606L240.758 44.5025ZM240.558 44.8276C240.535 44.8509 240.48 44.8844 240.345 44.8844V45.3844C240.557 45.3844 240.762 45.3313 240.912 45.1811L240.558 44.8276ZM240.345 44.8844H238.946V45.3844H240.345V44.8844ZM238.946 44.8844C238.812 44.8844 238.696 44.8418 238.589 44.7495L238.263 45.1291C238.459 45.297 238.69 45.3844 238.946 45.3844V44.8844ZM238.616 44.7766C238.523 44.6689 238.481 44.5528 238.481 44.419H237.981C237.981 44.6753 238.068 44.9061 238.236 45.102L238.616 44.7766ZM238.48 44.4294C238.499 43.9756 238.71 43.4365 239.151 42.8061L238.741 42.5194C238.272 43.1899 238.005 43.8216 237.981 44.4085L238.48 44.4294ZM239.15 42.8075C239.596 42.1785 240.285 41.628 241.235 41.1637L241.015 40.7145C240.014 41.2042 239.25 41.8028 238.742 42.5181L239.15 42.8075ZM241.239 41.1617C242.17 40.6857 243.332 40.4411 244.735 40.4411V39.9411C243.276 39.9411 242.031 40.1952 241.011 40.7165L241.239 41.1617ZM244.735 40.4411C247.132 40.4411 248.793 41.009 249.788 42.0845L250.155 41.7451C249.024 40.5223 247.195 39.9411 244.735 39.9411V40.4411ZM249.789 42.0862C250.804 43.1628 251.315 44.5088 251.315 46.1426H251.815C251.815 44.3941 251.263 42.9216 250.153 41.7433L249.789 42.0862ZM251.315 46.1426V56.6797H251.815V46.1426H251.315ZM251.315 56.6797C251.315 56.831 251.265 56.9515 251.16 57.0558L251.514 57.4094C251.713 57.2102 251.815 56.9621 251.815 56.6797H251.315ZM251.16 57.0558C251.085 57.1307 250.98 57.1777 250.817 57.1777V57.6777C251.087 57.6777 251.329 57.5947 251.514 57.4094L251.16 57.0558ZM250.817 57.1777H249.321V57.6777H250.817V57.1777ZM249.321 57.1777C249.158 57.1777 249.033 57.1306 248.93 57.0428L248.605 57.4224C248.806 57.5947 249.05 57.6777 249.321 57.6777V57.1777ZM248.958 57.0699C248.87 56.9674 248.823 56.8423 248.823 56.6797H248.323C248.323 56.9508 248.406 57.1943 248.578 57.3953L248.958 57.0699ZM248.823 56.6797V55.2813H248.323V56.6797H248.823ZM248.367 55.1397C247.917 55.7933 247.258 56.3538 246.375 56.816L246.607 57.2589C247.546 56.7672 248.274 56.1569 248.779 55.4229L248.367 55.1397ZM246.375 56.816C245.511 57.2686 244.395 57.503 243.011 57.503V58.003C244.447 58.003 245.65 57.7603 246.607 57.2589L246.375 56.816ZM243.694 55.5638C245.163 55.5638 246.379 55.0867 247.321 54.1225L246.963 53.7733C246.126 54.6303 245.044 55.0638 243.694 55.0638V55.5638ZM247.321 54.1226C248.29 53.1298 248.758 51.7252 248.758 49.9477H248.258C248.258 51.6392 247.814 52.9014 246.963 53.7732L247.321 54.1226ZM248.758 49.9477V49.0371H248.258V49.9477H248.758ZM248.471 48.7897L244.699 49.3426L244.771 49.8373L248.544 49.2844L248.471 48.7897ZM244.7 49.3424C243.145 49.5614 241.942 49.9372 241.117 50.4877L241.394 50.9037C242.129 50.4135 243.246 50.0521 244.77 49.8375L244.7 49.3424ZM241.121 50.485C240.284 51.0197 239.834 51.7316 239.834 52.6145H240.334C240.334 51.9363 240.666 51.3691 241.39 50.9064L241.121 50.485ZM239.834 52.6145C239.834 53.5645 240.233 54.315 241.019 54.8389L241.296 54.4228C240.651 53.9927 240.334 53.399 240.334 52.6145H239.834ZM241.023 54.8418C241.785 55.3263 242.678 55.5638 243.694 55.5638V55.0638C242.759 55.0638 241.961 54.846 241.292 54.4199L241.023 54.8418ZM257.606 55.8016L257.428 55.977L257.431 55.9799L257.606 55.8016ZM255.524 50.2729L255.275 50.2792L255.275 50.2821L255.524 50.2729ZM255.492 48.972L255.242 48.9658L255.242 48.9783L255.492 48.972ZM255.524 47.6712L255.275 47.662L255.275 47.6649L255.524 47.6712ZM257.606 42.1749L257.783 42.3517L257.606 42.1749ZM267.037 41.0367L266.922 41.2585L267.037 41.0367ZM269.444 43.1181L269.232 43.2516L269.235 43.2555L269.444 43.1181ZM270.322 45.5897L270.072 45.6029L270.073 45.6146L270.322 45.5897ZM270.127 46.1101L270.29 46.2999L270.127 46.1101ZM267.525 46.1751L267.681 45.9799L267.525 46.1751ZM267.2 45.6548L266.964 45.7384L266.969 45.7509L267.2 45.6548ZM265.639 43.4433L265.499 43.6503L265.503 43.6534L265.639 43.4433ZM259.882 44.0287L259.701 43.8566L259.701 43.8568L259.882 44.0287ZM258.614 47.8338L258.364 47.8243L258.364 47.8268L258.614 47.8338ZM258.582 49.0046L258.332 48.9976C258.332 49.0024 258.332 49.0071 258.332 49.0119L258.582 49.0046ZM258.614 50.1103L258.364 50.1176L258.364 50.1197L258.614 50.1103ZM259.882 53.9479L259.701 54.1198L259.882 53.9479ZM265.639 54.5333L265.774 54.7434L265.779 54.7403L265.639 54.5333ZM267.2 52.2893L266.969 52.193L266.964 52.2058L267.2 52.2893ZM267.525 51.7689L267.681 51.9641C267.688 51.9584 267.695 51.9522 267.702 51.9457L267.525 51.7689ZM270.127 51.834L269.95 52.0107C269.955 52.0153 269.959 52.0196 269.964 52.0238L270.127 51.834ZM270.322 52.3543L270.073 52.3294L270.072 52.3408L270.322 52.3543ZM269.444 54.826L269.233 54.6911L269.232 54.6925L269.444 54.826ZM267.037 56.9074L266.922 56.6856L266.92 56.6865L267.037 56.9074ZM263.07 57.503C260.798 57.503 259.046 56.8674 257.781 55.6234L257.431 55.9799C258.811 57.3376 260.701 58.003 263.07 58.003V57.503ZM257.784 55.6263C256.538 54.3595 255.859 52.5824 255.774 50.2637L255.275 50.2821C255.363 52.69 256.072 54.5987 257.428 55.9769L257.784 55.6263ZM255.774 50.2667L255.742 48.9658L255.242 48.9783L255.275 50.2792L255.774 50.2667ZM255.742 48.9783L255.774 47.6774L255.275 47.6649L255.242 48.9658L255.742 48.9783ZM255.774 47.6803C255.859 45.3615 256.538 43.5963 257.783 42.3517L257.429 41.9982C256.072 43.3553 255.363 45.2543 255.275 47.662L255.774 47.6803ZM257.783 42.3517C259.048 41.0868 260.799 40.4411 263.07 40.4411V39.9411C260.7 39.9411 258.809 40.618 257.429 41.9982L257.783 42.3517ZM263.07 40.4411C264.601 40.4411 265.882 40.7177 266.922 41.2585L267.153 40.8149C266.024 40.2282 264.66 39.9411 263.07 39.9411V40.4411ZM266.922 41.2585C267.977 41.8069 268.741 42.4735 269.232 43.2516L269.655 42.9846C269.106 42.1149 268.266 41.3939 267.153 40.8149L266.922 41.2585ZM269.235 43.2555C269.757 44.0496 270.032 44.8313 270.072 45.6029L270.572 45.5766C270.526 44.7005 270.214 43.8344 269.653 42.9807L269.235 43.2555ZM270.073 45.6146C270.088 45.7587 270.048 45.8488 269.964 45.9203L270.29 46.2999C270.51 46.1112 270.6 45.8544 270.571 45.5649L270.073 45.6146ZM269.964 45.9203C269.862 46.0081 269.737 46.0552 269.574 46.0552V46.5552C269.845 46.5552 270.088 46.4722 270.29 46.2999L269.964 45.9203ZM269.574 46.0552H268.013V46.5552H269.574V46.0552ZM268.013 46.0552C267.823 46.0552 267.726 46.0161 267.681 45.9799L267.369 46.3704C267.54 46.5076 267.769 46.5552 268.013 46.5552V46.0552ZM267.681 45.9799C267.625 45.9349 267.536 45.8123 267.431 45.5586L266.969 45.7509C267.08 46.0177 267.208 46.2419 267.369 46.3704L267.681 45.9799ZM267.436 45.5713C267.055 44.498 266.508 43.7064 265.774 43.2332L265.503 43.6534C266.114 44.0475 266.607 44.7302 266.964 45.7383L267.436 45.5713ZM265.779 43.2363C265.056 42.7466 264.158 42.5103 263.102 42.5103V43.0103C264.084 43.0103 264.877 43.2294 265.499 43.6503L265.779 43.2363ZM263.102 42.5103C261.701 42.5103 260.558 42.9535 259.701 43.8566L260.064 44.2008C260.811 43.4127 261.815 43.0103 263.102 43.0103V42.5103ZM259.701 43.8568C258.862 44.7424 258.43 46.0807 258.364 47.8243L258.864 47.8432C258.928 46.1611 259.342 44.9627 260.064 44.2006L259.701 43.8568ZM258.364 47.8268L258.332 48.9976L258.831 49.0115L258.864 47.8407L258.364 47.8268ZM258.332 49.0119L258.364 50.1176L258.864 50.1029L258.831 48.9972L258.332 49.0119ZM258.364 50.1197C258.43 51.8839 258.861 53.2336 259.701 54.1198L260.064 53.7759C259.342 53.0144 258.928 51.8057 258.864 50.1009L258.364 50.1197ZM259.701 54.1198C260.538 55.0035 261.683 55.4337 263.102 55.4337V54.9337C261.79 54.9337 260.788 54.54 260.064 53.7759L259.701 54.1198ZM263.102 55.4337C264.156 55.4337 265.052 55.2093 265.774 54.7434L265.503 54.3232C264.881 54.7245 264.086 54.9337 263.102 54.9337V55.4337ZM265.779 54.7403C266.509 54.2459 267.055 53.4459 267.436 52.3727L266.964 52.2058C266.607 53.214 266.113 53.91 265.499 54.3263L265.779 54.7403ZM267.431 52.3854C267.536 52.1318 267.625 52.0091 267.681 51.9641L267.369 51.5737C267.208 51.7021 267.08 51.9264 266.969 52.1931L267.431 52.3854ZM267.702 51.9457C267.747 51.9007 267.835 51.8563 268.013 51.8563V51.3563C267.758 51.3563 267.52 51.4203 267.348 51.5921L267.702 51.9457ZM268.013 51.8563H269.574V51.3563H268.013V51.8563ZM269.574 51.8563C269.725 51.8563 269.846 51.9064 269.95 52.0107L270.304 51.6572C270.104 51.458 269.856 51.3563 269.574 51.3563V51.8563ZM269.964 52.0238C270.048 52.0953 270.088 52.1854 270.073 52.3294L270.571 52.3792C270.6 52.0896 270.51 51.8328 270.29 51.6441L269.964 52.0238ZM270.072 52.3408C270.032 53.0903 269.758 53.8729 269.233 54.6911L269.654 54.9609C270.214 54.0879 270.525 53.2227 270.572 52.3678L270.072 52.3408ZM269.232 54.6925C268.741 55.4706 267.977 56.1372 266.922 56.6856L267.153 57.1292C268.266 56.5502 269.106 55.8292 269.655 54.9595L269.232 54.6925ZM266.92 56.6865C265.903 57.226 264.624 57.503 263.07 57.503V58.003C264.681 58.003 266.046 57.7162 267.154 57.1282L266.92 56.6865ZM274.412 57.2326L274.222 57.3953C274.23 57.405 274.239 57.4141 274.249 57.4224L274.412 57.2326ZM274.412 34.5648L274.589 34.7416L274.589 34.7416L274.412 34.5648ZM277.111 34.5648L276.921 34.7275C276.93 34.7372 276.939 34.7463 276.948 34.7546L277.111 34.5648ZM277.339 42.6628H277.089C277.089 42.7694 277.156 42.8643 277.257 42.8991C277.358 42.9339 277.47 42.9009 277.536 42.817L277.339 42.6628ZM279.55 40.8415L279.66 41.0663L279.664 41.064L279.55 40.8415ZM287.551 42.2075L287.361 42.3699L287.364 42.3732L287.551 42.2075ZM289.079 57.2326L288.902 57.0558H288.902L289.079 57.2326ZM286.38 57.2326L286.19 57.3953C286.198 57.405 286.208 57.4141 286.217 57.4224L286.38 57.2326ZM285.047 44.0937L284.858 44.258L284.86 44.2607L285.047 44.0937ZM278.542 44.1263L278.361 43.9541L278.361 43.9542L278.542 44.1263ZM277.111 57.2326L276.934 57.0558L277.111 57.2326ZM274.965 57.1777C274.802 57.1777 274.677 57.1306 274.575 57.0428L274.249 57.4224C274.45 57.5947 274.694 57.6777 274.965 57.6777V57.1777ZM274.602 57.0699C274.514 56.9674 274.467 56.8423 274.467 56.6797H273.967C273.967 56.9508 274.05 57.1943 274.222 57.3953L274.602 57.0699ZM274.467 56.6797V35.0852H273.967V56.6797H274.467ZM274.467 35.0852C274.467 34.9219 274.514 34.8165 274.589 34.7416L274.235 34.388C274.05 34.5733 273.967 34.8148 273.967 35.0852H274.467ZM274.589 34.7416C274.693 34.6372 274.813 34.5872 274.965 34.5872V34.0872C274.682 34.0872 274.434 34.1888 274.235 34.388L274.589 34.7416ZM274.965 34.5872H276.591V34.0872H274.965V34.5872ZM276.591 34.5872C276.742 34.5872 276.843 34.6362 276.921 34.7275L277.301 34.4021C277.119 34.1898 276.874 34.0872 276.591 34.0872V34.5872ZM276.948 34.7546C277.04 34.8328 277.089 34.9343 277.089 35.0852H277.589C277.589 34.8024 277.486 34.5569 277.274 34.375L276.948 34.7546ZM277.089 35.0852V42.6628H277.589V35.0852H277.089ZM277.536 42.817C278.143 42.0421 278.851 41.4603 279.66 41.0663L279.441 40.6168C278.558 41.0467 277.792 41.6791 277.142 42.5086L277.536 42.817ZM279.664 41.064C280.465 40.6534 281.475 40.4411 282.705 40.4411V39.9411C281.42 39.9411 280.327 40.1625 279.436 40.6191L279.664 41.064ZM282.705 40.4411C284.728 40.4411 286.268 41.0912 287.361 42.3699L287.741 42.045C286.536 40.6352 284.845 39.9411 282.705 39.9411V40.4411ZM287.364 42.3732C288.484 43.6393 289.057 45.3421 289.057 47.5085H289.557C289.557 45.2519 288.959 43.4207 287.738 42.0418L287.364 42.3732ZM289.057 47.5085V56.6797H289.557V47.5085H289.057ZM289.057 56.6797C289.057 56.831 289.007 56.9515 288.902 57.0558L289.256 57.4094C289.455 57.2102 289.557 56.9621 289.557 56.6797H289.057ZM288.902 57.0558C288.828 57.1307 288.722 57.1777 288.559 57.1777V57.6777C288.829 57.6777 289.071 57.5947 289.256 57.4094L288.902 57.0558ZM288.559 57.1777H286.933V57.6777H288.559V57.1777ZM286.933 57.1777C286.77 57.1777 286.645 57.1306 286.543 57.0428L286.217 57.4224C286.418 57.5947 286.662 57.6777 286.933 57.6777V57.1777ZM286.57 57.0699C286.482 56.9674 286.435 56.8423 286.435 56.6797H285.935C285.935 56.9508 286.018 57.1943 286.19 57.3953L286.57 57.0699ZM286.435 56.6797V47.6712H285.935V56.6797H286.435ZM286.435 47.6712C286.435 46.0923 286.045 44.8324 285.233 43.9268L284.86 44.2607C285.565 45.0463 285.935 46.1713 285.935 47.6712H286.435ZM285.235 43.9295C284.439 43.016 283.288 42.5754 281.827 42.5754V43.0754C283.184 43.0754 284.18 43.4803 284.858 44.258L285.235 43.9295ZM281.827 42.5754C280.403 42.5754 279.239 43.0299 278.361 43.9541L278.723 44.2984C279.493 43.4881 280.519 43.0754 281.827 43.0754V42.5754ZM278.361 43.9542C277.502 44.8589 277.089 46.1094 277.089 47.6712H277.589C277.589 46.1975 277.977 45.0847 278.724 44.2983L278.361 43.9542ZM277.089 47.6712V56.6797H277.589V47.6712H277.089ZM277.089 56.6797C277.089 56.831 277.039 56.9515 276.934 57.0558L277.288 57.4094C277.487 57.2102 277.589 56.9621 277.589 56.6797H277.089ZM276.934 57.0558C276.859 57.1307 276.754 57.1777 276.591 57.1777V57.6777C276.861 57.6777 277.103 57.5947 277.288 57.4094L276.934 57.0558ZM276.591 57.1777H274.965V57.6777H276.591V57.1777ZM295.401 55.7041L295.22 55.8766L295.223 55.8794L295.401 55.7041ZM293.222 50.0453L292.972 50.0526L292.972 50.0589L293.222 50.0453ZM293.189 48.9395L292.939 48.9319C292.939 48.9369 292.939 48.9419 292.939 48.9469L293.189 48.9395ZM293.222 47.8663L292.972 47.8501L292.972 47.8587L293.222 47.8663ZM295.433 42.2725L295.254 42.0986L295.252 42.1L295.433 42.2725ZM306.328 42.5002L306.138 42.6631L306.14 42.6644L306.328 42.5002ZM308.084 49.7851L308.261 49.9619V49.9619L308.084 49.7851ZM296.311 49.9802V49.7302C296.173 49.7302 296.061 49.8421 296.061 49.9802H296.311ZM296.311 50.2729H296.061L296.062 50.2844L296.311 50.2729ZM297.58 53.8828L297.383 54.037L297.387 54.0416L297.58 53.8828ZM303.173 54.7609L303.305 54.9734L303.307 54.9721L303.173 54.7609ZM304.604 53.4926L304.404 53.3425L304.4 53.3492L304.604 53.4926ZM305.027 53.0373L305.139 53.2609C305.145 53.258 305.15 53.2549 305.156 53.2516L305.027 53.0373ZM307.661 53.1023L307.501 53.2944L307.661 53.1023ZM306.946 55.2813L306.76 55.1137L306.757 55.1171L306.946 55.2813ZM304.442 57.0375L304.544 57.2655L304.546 57.2646L304.442 57.0375ZM305.222 47.7362V47.9862C305.36 47.9862 305.472 47.8743 305.472 47.7362H305.222ZM303.986 43.9962L303.795 44.1571L303.799 44.1617L303.986 43.9962ZM297.482 43.9962L297.291 43.8353L297.29 43.8357L297.482 43.9962ZM296.311 47.7362H296.061C296.061 47.8743 296.173 47.9862 296.311 47.9862V47.7362ZM300.767 57.503C298.589 57.503 296.868 56.839 295.579 55.5287L295.223 55.8794C296.622 57.301 298.479 58.003 300.767 58.003V57.503ZM295.582 55.5316C294.31 54.1969 293.599 52.3722 293.471 50.0316L292.972 50.0589C293.105 52.4881 293.847 54.436 295.22 55.8766L295.582 55.5316ZM293.472 50.0379L293.439 48.9322L292.939 48.9469L292.972 50.0526L293.472 50.0379ZM293.439 48.9471L293.472 47.8739L292.972 47.8587L292.939 48.9319L293.439 48.9471ZM293.471 47.8825C293.62 45.5858 294.341 43.7812 295.614 42.445L295.252 42.1C293.881 43.539 293.127 45.4636 292.972 47.8501L293.471 47.8825ZM295.613 42.4465C296.903 41.1141 298.602 40.4411 300.734 40.4411V39.9411C298.487 39.9411 296.651 40.6557 295.254 42.0986L295.613 42.4465ZM300.734 40.4411C303.083 40.4411 304.872 41.1894 306.138 42.6631L306.518 42.3372C305.139 40.7322 303.199 39.9411 300.734 39.9411V40.4411ZM306.14 42.6644C307.412 44.1246 308.062 46.1199 308.062 48.6793H308.562C308.562 46.0353 307.889 43.9111 306.517 42.3359L306.14 42.6644ZM308.062 48.6793V49.2322H308.562V48.6793H308.062ZM308.062 49.2322C308.062 49.3835 308.012 49.5039 307.907 49.6083L308.261 49.9619C308.46 49.7627 308.562 49.5146 308.562 49.2322H308.062ZM307.907 49.6083C307.833 49.6832 307.727 49.7302 307.564 49.7302V50.2302C307.834 50.2302 308.076 50.1471 308.261 49.9619L307.907 49.6083ZM307.564 49.7302H296.311V50.2302H307.564V49.7302ZM296.061 49.9802V50.2729H296.561V49.9802H296.061ZM296.062 50.2844C296.129 51.7394 296.567 52.9941 297.383 54.0369L297.777 53.7288C297.032 52.7769 296.624 51.625 296.561 50.2614L296.062 50.2844ZM297.387 54.0416C298.238 55.077 299.361 55.5963 300.734 55.5963V55.0963C299.506 55.0963 298.526 54.64 297.773 53.7241L297.387 54.0416ZM300.734 55.5963C301.763 55.5963 302.625 55.3953 303.305 54.9733L303.042 54.5485C302.464 54.9071 301.701 55.0963 300.734 55.0963V55.5963ZM303.307 54.9721C303.974 54.5499 304.48 54.106 304.809 53.6359L304.4 53.3492C304.122 53.7464 303.674 54.1481 303.04 54.5497L303.307 54.9721ZM304.804 53.6426C304.899 53.516 304.977 53.4207 305.04 53.3537C305.071 53.3203 305.096 53.2963 305.115 53.2799C305.135 53.2625 305.143 53.259 305.139 53.2609L304.915 52.8137C304.829 52.8569 304.746 52.9349 304.673 53.0135C304.594 53.0983 304.505 53.209 304.404 53.3426L304.804 53.6426ZM305.156 53.2516C305.202 53.224 305.327 53.1897 305.58 53.1897V52.6897C305.313 52.6897 305.069 52.7205 304.899 52.8229L305.156 53.2516ZM305.58 53.1897H307.174V52.6897H305.58V53.1897ZM307.174 53.1897C307.32 53.1897 307.423 53.229 307.501 53.2944L307.822 52.9103C307.64 52.7588 307.418 52.6897 307.174 52.6897V53.1897ZM307.501 53.2944C307.565 53.3477 307.607 53.4241 307.607 53.5576H308.107C308.107 53.3009 308.018 53.0737 307.822 52.9103L307.501 53.2944ZM307.607 53.5576C307.607 53.9369 307.359 54.4513 306.76 55.1137L307.132 55.4489C307.747 54.767 308.107 54.1323 308.107 53.5576H307.607ZM306.757 55.1171C306.202 55.7551 305.4 56.3217 304.337 56.8103L304.546 57.2646C305.652 56.7559 306.519 56.1517 307.135 55.4455L306.757 55.1171ZM304.339 56.8094C303.315 57.2694 302.126 57.503 300.767 57.503V58.003C302.183 58.003 303.444 57.7595 304.544 57.2655L304.339 56.8094ZM305.472 47.7362V47.6386H304.972V47.7362H305.472ZM305.472 47.6386C305.472 46.0946 305.046 44.8175 304.174 43.8306L303.799 44.1617C304.575 45.0395 304.972 46.1906 304.972 47.6386H305.472ZM304.178 43.8353C303.323 42.819 302.166 42.3152 300.734 42.3152V42.8152C302.034 42.8152 303.045 43.2654 303.795 44.1571L304.178 43.8353ZM300.734 42.3152C299.303 42.3152 298.145 42.819 297.291 43.8353L297.673 44.1571C298.423 43.2654 299.434 42.8152 300.734 42.8152V42.3152ZM297.29 43.8357C296.464 44.8226 296.061 46.0979 296.061 47.6386H296.561C296.561 46.1873 296.939 45.0343 297.674 44.1567L297.29 43.8357ZM296.061 47.6386V47.7362H296.561V47.6386H296.061ZM296.311 47.9862H305.222V47.4862H296.311V47.9862Z" fill="#51504F"/>
<path d="M189.267 133.808C188.826 133.808 188.441 133.642 188.11 133.312C187.78 132.981 187.614 132.596 187.614 132.155C187.614 131.714 187.642 131.412 187.697 131.246L208.188 77.789C208.628 76.5772 209.51 75.9713 210.832 75.9713H216.45C217.772 75.9713 218.653 76.5772 219.094 77.789L239.502 131.246L239.667 132.155C239.667 132.596 239.502 132.981 239.171 133.312C238.841 133.642 238.455 133.808 238.015 133.808H233.801C233.195 133.808 232.727 133.67 232.396 133.395C232.066 133.064 231.845 132.734 231.735 132.403L227.191 120.671H200.091L195.546 132.403C195.436 132.734 195.188 133.064 194.803 133.395C194.472 133.67 194.031 133.808 193.481 133.808H189.267ZM224.795 113.565L213.641 84.2336L202.487 113.565H224.795ZM248.667 82.829C248.116 82.829 247.648 82.6638 247.262 82.3333C246.931 81.9477 246.766 81.4795 246.766 80.9287V76.467C246.766 75.9162 246.931 75.448 247.262 75.0624C247.648 74.6769 248.116 74.4841 248.667 74.4841H253.872C254.423 74.4841 254.891 74.6769 255.276 75.0624C255.662 75.448 255.855 75.9162 255.855 76.467V80.9287C255.855 81.4795 255.662 81.9477 255.276 82.3333C254.891 82.6638 254.423 82.829 253.872 82.829H248.667ZM249.328 133.808C248.777 133.808 248.309 133.642 247.923 133.312C247.592 132.926 247.427 132.458 247.427 131.907V92.7438C247.427 92.193 247.592 91.7523 247.923 91.4219C248.309 91.0363 248.777 90.8435 249.328 90.8435H253.293C253.844 90.8435 254.285 91.0363 254.615 91.4219C255.001 91.7523 255.194 92.193 255.194 92.7438V131.907C255.194 132.458 255.001 132.926 254.615 133.312C254.285 133.642 253.844 133.808 253.293 133.808H249.328ZM269.338 133.808C268.787 133.808 268.319 133.642 267.933 133.312C267.603 132.926 267.438 132.458 267.438 131.907V92.8265C267.438 92.2756 267.603 91.8074 267.933 91.4219C268.319 91.0363 268.787 90.8435 269.338 90.8435H273.139C273.689 90.8435 274.158 91.0363 274.543 91.4219C274.929 91.8074 275.122 92.2756 275.122 92.8265V96.4619C277.38 92.7163 281.236 90.8435 286.689 90.8435H289.911C290.462 90.8435 290.903 91.0363 291.233 91.4219C291.619 91.7523 291.811 92.193 291.811 92.7438V96.1314C291.811 96.6822 291.619 97.1229 291.233 97.4534C290.903 97.7839 290.462 97.9491 289.911 97.9491H284.954C281.979 97.9491 279.638 98.8304 277.931 100.593C276.223 102.301 275.369 104.642 275.369 107.616V131.907C275.369 132.458 275.177 132.926 274.791 133.312C274.405 133.642 273.937 133.808 273.386 133.808H269.338ZM305.021 133.808C304.471 133.808 304.002 133.642 303.617 133.312C303.286 132.926 303.121 132.458 303.121 131.907V97.4534H296.098C295.547 97.4534 295.079 97.2881 294.694 96.9576C294.363 96.572 294.198 96.1038 294.198 95.553V92.7438C294.198 92.193 294.363 91.7523 294.694 91.4219C295.079 91.0363 295.547 90.8435 296.098 90.8435H303.121V86.7123C303.121 77.3484 307.858 72.6664 317.332 72.6664H321.959C322.51 72.6664 322.951 72.8592 323.281 73.2447C323.667 73.5752 323.86 74.0159 323.86 74.5667V77.3759C323.86 77.9267 323.667 78.3949 323.281 78.7805C322.951 79.111 322.51 79.2762 321.959 79.2762H317.498C315.019 79.2762 313.284 79.9372 312.292 81.2592C311.301 82.5261 310.805 84.4815 310.805 87.1254V90.8435H328.486V74.5667C328.486 74.0159 328.652 73.5752 328.982 73.2447C329.368 72.8592 329.836 72.6664 330.387 72.6664H334.187C334.738 72.6664 335.179 72.8592 335.509 73.2447C335.895 73.5752 336.088 74.0159 336.088 74.5667V131.907C336.088 132.458 335.895 132.926 335.509 133.312C335.179 133.642 334.738 133.808 334.187 133.808H330.387C329.836 133.808 329.368 133.642 328.982 133.312C328.652 132.926 328.486 132.458 328.486 131.907V97.4534H310.805V131.907C310.805 132.458 310.612 132.926 310.227 133.312C309.896 133.642 309.456 133.808 308.905 133.808H305.021ZM365.965 134.634C359.906 134.634 355.197 132.926 351.837 129.511C348.532 126.096 346.769 121.552 346.549 115.878L346.466 112.326L346.549 108.773C346.769 103.154 348.559 98.6376 351.919 95.2225C355.279 91.7523 359.961 90.0173 365.965 90.0173C371.969 90.0173 376.651 91.7523 380.011 95.2225C383.371 98.6376 385.161 103.154 385.382 108.773C385.437 109.379 385.464 110.563 385.464 112.326C385.464 114.088 385.437 115.272 385.382 115.878C385.161 121.552 383.371 126.096 380.011 129.511C376.706 132.926 372.024 134.634 365.965 134.634ZM365.965 128.272C369.435 128.272 372.162 127.17 374.145 124.967C376.183 122.764 377.285 119.596 377.45 115.465C377.505 114.914 377.532 113.868 377.532 112.326C377.532 110.783 377.505 109.737 377.45 109.186C377.285 105.055 376.183 101.887 374.145 99.6842C372.162 97.4809 369.435 96.3793 365.965 96.3793C362.495 96.3793 359.741 97.4809 357.703 99.6842C355.665 101.887 354.591 105.055 354.481 109.186L354.398 112.326L354.481 115.465C354.591 119.596 355.665 122.764 357.703 124.967C359.741 127.17 362.495 128.272 365.965 128.272ZM406.083 133.808C405.367 133.808 404.816 133.642 404.43 133.312C404.045 132.981 403.714 132.458 403.439 131.742L391.706 93.4048L391.541 92.5786C391.541 92.0828 391.706 91.6697 392.037 91.3392C392.422 91.0087 392.835 90.8435 393.276 90.8435H396.911C397.462 90.8435 397.903 91.0087 398.233 91.3392C398.619 91.6146 398.867 91.9176 398.977 92.2481L408.148 123.397L417.98 92.5786C418.091 92.1379 418.338 91.7523 418.724 91.4219C419.11 91.0363 419.633 90.8435 420.294 90.8435H423.103C423.764 90.8435 424.287 91.0363 424.673 91.4219C425.059 91.7523 425.306 92.1379 425.417 92.5786L435.249 123.397L444.42 92.2481C444.475 91.9727 444.668 91.6697 444.998 91.3392C445.384 91.0087 445.852 90.8435 446.403 90.8435H450.121C450.562 90.8435 450.947 91.0087 451.278 91.3392C451.608 91.6697 451.773 92.0828 451.773 92.5786L451.608 93.4048L439.958 131.742C439.683 132.458 439.352 132.981 438.967 133.312C438.581 133.642 438.003 133.808 437.232 133.808H434.009C432.522 133.808 431.613 133.119 431.283 131.742L421.698 102.163L412.114 131.742C411.674 133.119 410.737 133.808 409.305 133.808H406.083Z" fill="#51504F"/>
</g>
<defs>
<clipPath id="clip0">
<rect width="453" height="175" fill="white"/>
</clipPath>
</defs>
</svg>
