<svg xmlns="http://www.w3.org/2000/svg" width="68" height="36" viewBox="0 0 68 36">
    <g fill="none" fill-rule="evenodd">
        <path fill="#E25A1C" d="M62.061 17.243c-.058.123-.085.186-.117.245-.85 1.594-1.698 3.19-2.555 4.78-.087.159-.076.254.042.39 1.352 1.558 2.697 3.122 4.044 4.685.047.054.09.113.108.21-.394-.101-.788-.201-1.181-.304-1.634-.427-3.268-.853-4.9-1.285-.152-.04-.221.003-.297.128-.927 1.528-1.86 3.053-2.792 4.578-.048.08-.1.157-.202.223-.075-.407-.152-.814-.225-1.221l-.777-4.314c-.028-.156-.067-.31-.08-.467-.014-.148-.09-.203-.227-.245-1.925-.596-3.848-1.198-5.772-1.8-.084-.026-.167-.06-.257-.141l4.744-1.86c-.058-.045-.096-.08-.138-.108-.984-.628-1.97-1.253-2.95-1.884-.118-.075-.211-.086-.343-.027-1.175.521-2.355 1.033-3.531 1.552-.529.233-1.004.542-1.374.988-.837 1.01-.672 2.158.443 2.86.365.23.78.401 1.192.534 1.886.606 3.779 1.19 5.67 1.777.159.049.233.119.262.288.252 1.44.514 2.877.776 4.315.141.768.216 1.557.595 2.26.146.272.32.537.528.764.75.822 1.799.854 2.593.07.268-.264.498-.576.698-.895.874-1.407 1.735-2.823 2.59-4.24.102-.169.193-.202.38-.153 2.11.558 4.222 1.107 6.333 1.657.436.114.876.155 1.323.073.974-.18 1.4-.91 1.07-1.838-.15-.422-.409-.78-.7-1.116-1.473-1.71-2.944-3.42-4.422-5.125-.121-.14-.124-.24-.04-.396.882-1.64 1.756-3.283 2.634-4.925.21-.393.37-.8.375-1.252.01-1.027-.75-1.867-1.785-2.016-.58-.084-1.118.038-1.66.203-1.323.404-2.648.8-3.974 1.193-.123.037-.17.084-.191.215-.153.92-.319 1.838-.48 2.757-.004.025.003.052.007.109l4.563-1.242" transform="matrix(1 0 0 -1 0 35.974)"/>
        <path fill="#FFF" d="M59.483 3.841c-1.193.002-2.386.008-3.58.003-.157 0-.246.045-.334.177-1.412 2.122-2.83 4.239-4.248 6.357-.045.068-.093.133-.174.246l-.902-6.767h-3.124c.037.3.069.59.107.88.305 2.296.611 4.594.918 6.89.292 2.195.583 4.39.88 6.585.009.065.053.148.107.183 1.075.69 2.154 1.376 3.232 2.062.016.01.038.011.094.027l-.974-7.324.038-.026 5.113 5.59.136-.772c.121-.698.237-1.396.367-2.092.026-.14-.011-.228-.106-.325-1.094-1.13-2.185-2.263-3.276-3.396l-.147-.159c.035-.055.064-.108.1-.157l5.647-7.814c.034-.048.083-.085.126-.127v-.04M22.455 10.614c-.048.24-.082.593-.19.922-.523 1.592-2.18 2.465-3.894 2.071-1.88-.431-3.224-1.89-3.418-3.782-.144-1.4.62-2.749 2.041-3.255 1.145-.408 2.247-.237 3.27.368 1.358.803 2.093 1.995 2.19 3.676zm-8.258-5.917c-.093-.685-.182-1.33-.268-1.977-.114-.858-.228-1.717-.338-2.576-.013-.1-.044-.145-.153-.144-.858.003-1.716.003-2.574.004-.02 0-.039.01-.085.023.051.406.102.812.156 1.218.19 1.425.378 2.849.57 4.273.22 1.628.394 3.264.675 4.882.499 2.864 2.962 5.333 5.854 5.948 1.676.356 3.28.191 4.743-.74 1.46-.927 2.297-2.273 2.488-3.967.27-2.394-.624-4.382-2.348-6.026-1.132-1.08-2.487-1.766-4.05-1.998-1.61-.239-3.124.026-4.482.962-.05.034-.103.064-.188.118M12.798 18.308l-2.821-2.071c-.15.233-.285.466-.442.683-.404.557-.906.973-1.637 1.024-.607.042-1.126-.156-1.54-.597-.37-.395-.418-.957-.072-1.403.38-.49.796-.956 1.221-1.411.705-.753 1.442-1.478 2.142-2.236.637-.689 1.144-1.462 1.301-2.404.187-1.12-.04-2.187-.577-3.171-.994-1.822-2.56-2.88-4.626-3.21-.913-.146-1.823-.117-2.714.142C1.851 3.997 1.03 4.76.5 5.84.313 6.22.17 6.624 0 7.033l3.06 1.615c.035-.084.06-.154.093-.22.174-.343.317-.707.532-1.023.639-.937 1.67-1.222 2.718-.76.268.12.527.288.748.48.675.591.801 1.413.302 2.156-.287.427-.646.81-.995 1.193-.835.914-1.704 1.8-2.52 2.73-.561.642-.943 1.39-1.064 2.25-.132.938.058 1.823.553 2.613 1.23 1.963 3.02 2.985 5.385 2.9 1.348-.048 2.422-.67 3.256-1.703.246-.306.478-.624.73-.956M35.648 7.767c-.156-1.183-.304-2.307-.458-3.43-.008-.057-.053-.134-.102-.157-2.329-1.063-5.395-.915-7.307 1.227-1.028 1.15-1.459 2.516-1.394 4.036.149 3.517 3.105 6.587 6.641 7.016 2.066.251 3.878-.3 5.277-1.882.953-1.078 1.394-2.366 1.329-3.787-.043-.938-.192-1.873-.31-2.807-.168-1.323-.352-2.645-.529-3.967-.006-.047-.016-.094-.026-.153h-2.786c.037.304.071.601.11.898.202 1.527.424 3.052.6 4.582.11.952.041 1.898-.4 2.78-.47.939-1.259 1.435-2.295 1.543-2.145.224-4.186-1.246-4.643-3.328-.302-1.374.174-2.691 1.284-3.42 1.081-.71 2.24-.712 3.418-.251.598.233 1.107.602 1.591 1.1M47.378 16.192l-.38-2.848c-.59 0-1.167.003-1.744-.002-.468-.003-.895-.301-1.036-.732-.055-.168-.075-.349-.099-.526-.293-2.187-.583-4.374-.874-6.562-.074-.551-.145-1.103-.219-1.663h-2.899c.054.42.105.828.16 1.234.188 1.418.376 2.835.567 4.252.165 1.226.312 2.455.507 3.677.26 1.638 1.912 3.093 3.588 3.164.8.035 1.602.006 2.429.006" transform="matrix(1 0 0 -1 0 35.974)"/>
        <path fill="#FFF" fill-rule="nonzero" d="M62.9 3.859v1.207h-.006l-.48-1.207h-.154l-.48 1.207h-.007V3.86h-.242v1.446h.373l.438-1.099.43 1.099h.37V3.859h-.241zm-2.127 1.253V3.859h-.242v1.253h-.46v.193h1.16v-.193h-.458M16.682 20.339h.72l-.17 1.073-.55-1.073zm.832-.694h-1.196l-.38-.734h-.847l1.868 3.443h.817l.636-3.443h-.785l-.113.734M21.793 21.66h-.426l-.143-.794h.425c.257 0 .463.166.463.48 0 .208-.13.314-.319.314zm-1.032.694h1.12c.585 0 .995-.345.995-.937 0-.744-.534-1.245-1.293-1.245H21.1l-.226-1.26h-.728l.615 3.442M25.352 20.339h.719l-.17 1.073-.55-1.073zm.831-.694h-1.195l-.38-.734h-.847l1.868 3.443h.816l.637-3.443h-.786l-.113.734M30.912 19.033c-.246-.111-.518-.178-.79-.178-.924 0-1.505.684-1.505 1.54 0 1.093.935 2.015 2.044 2.015.277 0 .528-.066.733-.177l-.102-.826c-.154.167-.4.284-.709.284-.636 0-1.2-.568-1.2-1.225 0-.502.318-.892.82-.892.309 0 .606.117.806.279l-.097-.82M35.366 20.298L33.847 20.298 33.6 18.911 32.872 18.911 33.487 22.354 34.216 22.354 33.97 20.992 35.489 20.992 35.735 22.354 36.464 22.354 35.849 18.911 35.12 18.911 35.366 20.298M38.039 18.911L38.655 22.354 40.59 22.354 40.467 21.66 39.26 21.66 39.138 20.992 40.246 20.992 40.123 20.298 39.014 20.298 38.891 19.605 40.097 19.605 39.974 18.911 38.039 18.911" transform="matrix(1 0 0 -1 0 35.974)"/>
    </g>
</svg>
