<?xml version="1.0" encoding="UTF-8" standalone="no"?>
<!--
Licensed to the Apache Software Foundation (ASF) under one
or more contributor license agreements.  See the NOTICE file
distributed with this work for additional information
regarding copyright ownership.  The ASF licenses this file
to you under the Apache License, Version 2.0 (the
"License"); you may not use this file except in compliance
with the License.  You may obtain a copy of the License at

  http://www.apache.org/licenses/LICENSE-2.0

Unless required by applicable law or agreed to in writing,
software distributed under the License is distributed on an
"AS IS" BASIS, WITHOUT WARRANTIES OR CONDITIONS OF ANY
KIND, either express or implied.  See the License for the
specific language governing permissions and limitations
under the License.
-->
<!DOCTYPE svg PUBLIC "-//W3C//DTD SVG 1.1//EN" "http://www.w3.org/Graphics/SVG/1.1/DTD/svg11.dtd">
<svg version="1.1" xmlns="http://www.w3.org/2000/svg" xmlns:xlink="http://www.w3.org/1999/xlink" x="0px" y="0px"  viewBox="0 0 182. 182.5" style="enable-background:new 0 0 182.5 182.5;" xml:space="preserve">
    <style type="text/css">
        .st0{fill:#3D77BC;}
        .st1{fill:#07AD4B;}
        .st2{fill-rule:evenodd;clip-rule:evenodd;fill:#50B956;}
        .st3{fill:#2EC0CE;}
        .st4{fill-rule:evenodd;clip-rule:evenodd;fill:#59C7DA;}
        .st5{fill:#E33D26;}
        .st6{fill-rule:evenodd;clip-rule:evenodd;fill:#F37559;}
        .st7{fill-rule:evenodd;clip-rule:evenodd;fill:#47B1E4;}
        .st8{fill:#4B4949;}
    </style>
    <g>
        <!-- Dark blue wing -->
        <path class="st0" d="M2.9,181.7l87.4-89.5c0.5-0.6,0.7-1.4,0.2-2.1c-5.3-7.4-15.1-8.7-18.7-13.7C61,61.7,58.3,53.3,53.6,53.8
            c-0.3,0-0.6,0.2-0.8,0.4L21.2,86.6C3.1,105.2,0.5,146.2,0,180.5C0,182.1,1.9,182.8,2.9,181.7z"/>
        <path class="st7" d="M21.2,86.6c9.9-10.2,29.5-14.9,70,4.6C77.1,59.6,58.5,48.5,53.1,53.9L21.2,86.6z"/>
        <!-- Green wing -->
        <path class="st1" d="M181.7,179.5L92.2,92.2c-0.6-0.5-1.4-0.7-2.1-0.2c-7.4,5.3-8.7,15.1-13.7,18.7c-14.8,10.8-23.1,13.5-22.6,18.1
            c0,0.3,0.2,0.6,0.4,0.8l32.3,31.6c18.6,18.2,59.6,20.8,93.9,21.2C182.1,182.5,182.8,180.6,181.7,179.5z"/>
        <path class="st2" d="M86.6,161.2c-10.2-9.9-14.9-29.5,4.6-70c-31.7,14.2-42.8,32.8-37.3,38.1L86.6,161.2z"/>
        <!-- Light blue wing -->
        <path class="st3" d="M179.5,0.7L92.2,90.3c-0.5,0.6-0.7,1.4-0.2,2.1c5.3,7.4,15.1,8.7,18.7,13.7c10.8,14.8,13.5,23.1,18.1,22.6
            c0.3,0,0.6-0.2,0.8-0.4l31.6-32.3c18.2-18.6,20.8-59.6,21.2-93.9C182.5,0.4,180.6-0.4,179.5,0.7z"/>
        <path class="st4" d="M161.2,95.8c-9.9,10.2-29.5,14.9-70-4.6c14.2,31.7,32.8,42.8,38.1,37.3L161.2,95.8z"/>
        <!-- Red wing -->
        <path class="st5" d="M0.7,2.9l89.5,87.4c0.6,0.5,1.4,0.7,2.1,0.2c7.4-5.3,8.7-15.1,13.7-18.7c14.8-10.8,23.1-13.5,22.6-18.1
            c0-0.3-0.2-0.6-0.4-0.8L95.8,21.2C77.2,3.1,36.3,0.5,1.9,0C0.4,0-0.4,1.9,0.7,2.9z"/>
        <path class="st6" d="M95.8,21.2c10.2,9.9,14.9,29.5-4.6,70c31.7-14.2,42.8-32.8,37.3-38.1L95.8,21.2z"/>
        <!-- Pin -->
        <circle class="st8" cx="91.2" cy="91.2" r="3.9"/>
    </g>
</svg>
