<?xml version="1.0" encoding="UTF-8" standalone="no"?>
<!--
Licensed under the Apache License, Version 2.0 (the "License");
you may not use this file except in compliance with the License.
You may obtain a copy of the License at

    http://www.apache.org/licenses/LICENSE-2.0

Unless required by applicable law or agreed to in writing, software
distributed under the License is distributed on an "AS IS" BASIS,
WITHOUT WARRANTIES OR CONDITIONS OF ANY KIND, either express or implied.
See the License for the specific language governing permissions and
limitations under the License.
-->
<!DOCTYPE svg PUBLIC "-//W3C//DTD SVG 1.1//EN" "http://www.w3.org/Graphics/SVG/1.1/DTD/svg11.dtd">
<svg viewBox="-0.01 -0.01 1.01 1.01" version="1.1" xmlns="http://www.w3.org/2000/svg"  xmlns:xlink="http://www.w3.org/1999/xlink">
    <defs>
        <g id="WheelBack">
            <path fill="inherit" d="
                M 0.52 0.5
                L 1 0.9
                L 0.7 0.9
                A 0.8 0.6 0 0 1 0.52 0.5
                Z" />
        </g>
        <g id="WheelShadow">
            <path fill="inherit" d="
                M 0.52 0.5
                A 0.8 0.6 0 0 0 0.7 0.9
                C 0.63 0.9 0.58 0.88 0.52 0.85
                A 2.5 1 0 0 1 0.5 0.5
                Z" />
        </g>
        <g id="WheelFront">
            <path fill="inherit" d="
                M 0.5 0.5
                A 2.5 1 0 0 0 0.52 0.85
                L 0.28 0.65
                C 0.29 0.55 0.44 0.48 0.5 0.5
                Z" />
        </g>
        <g id="WheelOutline">
            <path stroke="black" stroke-width="0.003" fill-opacity="0" d="
                M 0.64 0.6
                L 1 0.9
                L 0.7 0.9
                C 0.63 0.9 0.58 0.88 0.52 0.85
                L 0.28 0.65
                C 0.29 0.55 0.44 0.48 0.5 0.5
                M 0.52 0.85
                A 2.5 1 0 0 1 0.5 0.5
                " />
        </g>

        <radialGradient id="GreenBack" cx="0" cy="1" r="1">
            <stop offset="0%" stop-color="#00c813" />
            <stop offset="100%" stop-color="#006f00" />
        </radialGradient>
        <radialGradient id="GreenShadow" cx="0" cy="1" r="1">
            <stop offset="0%" stop-color="#008200" />
            <stop offset="100%" stop-color="#007600" />
        </radialGradient>
        <radialGradient id="GreenFront" cx="0" cy="1" r="1">
            <stop offset="0%" stop-color="#00cd1d" />
            <stop offset="1000%" stop-color="#00ea50" />
        </radialGradient>

        <radialGradient id="PeriwinkleBack" cx="0" cy="1" r="1">
            <stop offset="0%" stop-color="#56affe" />
            <stop offset="100%" stop-color="#04a4ff" />
        </radialGradient>
        <radialGradient id="PeriwinkleShadow" cx="0" cy="1" r="1">
            <stop offset="0%" stop-color="#3166d4" />
            <stop offset="100%" stop-color="#1a519f" />
        </radialGradient>
        <radialGradient id="PeriwinkleFront" cx="0" cy="1" r="1">
            <stop offset="0%" stop-color="#b1c8fd" />
            <stop offset="100%" stop-color="#7fc4fe" />
        </radialGradient>

        <radialGradient id="RedBack" cx="0" cy="1" r="1">
            <stop offset="0%" stop-color="#df2000" />
            <stop offset="100%" stop-color="#570d00" />
        </radialGradient>
        <radialGradient id="RedShadow" cx="0" cy="1" r="1">
            <stop offset="0%" stop-color="#8e1500" />
            <stop offset="100%" stop-color="#4c0b00" />
        </radialGradient>
        <radialGradient id="RedFront" cx="0" cy="1" r="1">
            <stop offset="0%" stop-color="#e12b00" />
            <stop offset="100%" stop-color="#b62f00" />
        </radialGradient>

        <radialGradient id="AzureBack" cx="0" cy="1" r="1">
            <stop offset="0%" stop-color="#00fffe" />
            <stop offset="100%" stop-color="#00daff" />
        </radialGradient>
        <radialGradient id="AzureShadow" cx="0" cy="1" r="1">
            <stop offset="0%" stop-color="#0091c5" />
            <stop offset="100%" stop-color="#005e8d" />
        </radialGradient>
        <radialGradient id="AzureFront" cx="0" cy="1" r="1">
            <stop offset="0%" stop-color="#00b6dd" />
            <stop offset="100%" stop-color="#00ffff" />
        </radialGradient>
    </defs>

    <use xlink:href="#WheelBack" fill="url(#GreenBack)" transform="rotate(0 0.5 0.5)" />
    <use xlink:href="#WheelBack" fill="url(#PeriwinkleBack)" transform="rotate(90 0.5 0.5)" />
    <use xlink:href="#WheelBack" fill="url(#RedBack)" transform="rotate(180 0.5 0.5)" />
    <use xlink:href="#WheelBack" fill="url(#AzureBack)" transform="rotate(270 0.5 0.5)" />

    <use xlink:href="#WheelShadow" fill="url(#GreenShadow)" transform="rotate(0 0.5 0.5)" />
    <use xlink:href="#WheelShadow" fill="url(#PeriwinkleShadow)" transform="rotate(90 0.5 0.5)" />
    <use xlink:href="#WheelShadow" fill="url(#RedShadow)" transform="rotate(180 0.5 0.5)" />
    <use xlink:href="#WheelShadow" fill="url(#AzureShadow)" transform="rotate(270 0.5 0.5)" />

    <use xlink:href="#WheelOutline" transform="rotate(0 0.5 0.5)" />
    <use xlink:href="#WheelOutline" transform="rotate(90 0.5 0.5)" />
    <use xlink:href="#WheelOutline" transform="rotate(180 0.5 0.5)" />
    <use xlink:href="#WheelOutline" transform="rotate(270 0.5 0.5)" />

    <use xlink:href="#WheelFront" fill="url(#GreenFront)" transform="rotate(0 0.5 0.5)" />
    <use xlink:href="#WheelFront" fill="url(#PeriwinkleFront)" transform="rotate(90 0.5 0.5)" />
    <use xlink:href="#WheelFront" fill="url(#RedFront)" transform="rotate(180 0.5 0.5)" />
    <use xlink:href="#WheelFront" fill="url(#AzureFront)" transform="rotate(270 0.5 0.5)" />

    <circle cx="0.5" cy="0.5" r="0.025" fill="black" />
</svg>
